<svg width="24" height="24" viewBox="0 0 24 24" fill="none" xmlns="http://www.w3.org/2000/svg">
<path fill-rule="evenodd" clip-rule="evenodd" d="M14.1818 16.2383L15.6737 11.7627C15.7727 11.4658 16.0506 11.2655 16.3636 11.2655H19.2727C19.6744 11.2655 20 11.5911 20 11.9927C20 12.3944 19.6744 12.72 19.2727 12.72H16.8878L14.8718 18.7682C14.6508 19.4312 13.7129 19.4312 13.4919 18.7682L9.81818 7.74711L8.32632 12.2227C8.22732 12.5197 7.9494 12.72 7.63636 12.72H4.72727C4.32561 12.72 4 12.3944 4 11.9927C4 11.5911 4.32561 11.2655 4.72727 11.2655H7.11217L9.12823 5.21729C9.34925 4.55424 10.2871 4.55424 10.5081 5.21729L14.1818 16.2383Z" fill="#1991FF"/>
</svg>
