<svg width="24" height="24" viewBox="0 0 24 24" fill="none" xmlns="http://www.w3.org/2000/svg">
<path fill-rule="evenodd" clip-rule="evenodd" d="M12 20C7.58172 20 4 16.4183 4 12C4 7.58172 7.58172 4 12 4C16.4183 4 20 7.58172 20 12C20 16.4183 16.4183 20 12 20ZM12 18.5455C15.615 18.5455 18.5455 15.615 18.5455 12C18.5455 8.38505 15.615 5.45455 12 5.45455C8.38505 5.45455 5.45455 8.38505 5.45455 12C5.45455 15.615 8.38505 18.5455 12 18.5455ZM11.2729 9.09091C11.2729 8.68925 11.5986 8.36364 12.0002 8.36364C12.4019 8.36364 12.7275 8.68925 12.7275 9.09091V11.2727H14.9092C15.3109 11.2727 15.6365 11.5983 15.6365 12C15.6365 12.4017 15.3109 12.7273 14.9092 12.7273H12.7275V14.9091C12.7275 15.3108 12.4019 15.6364 12.0002 15.6364C11.5986 15.6364 11.2729 15.3108 11.2729 14.9091V12.7273H9.09104C8.68938 12.7273 8.36377 12.4017 8.36377 12C8.36377 11.5983 8.68938 11.2727 9.09104 11.2727H11.2729V9.09091Z" fill="#1991FF"/>
</svg>
