<svg width="24" height="24" viewBox="0 0 24 24" fill="none" xmlns="http://www.w3.org/2000/svg">
<path fill-rule="evenodd" clip-rule="evenodd" d="M10.2051 5.98253C10.5872 5.35264 11.2668 4.97 11.9997 4.97C12.7325 4.97 13.4121 5.35264 13.7942 5.98253L19.719 15.8738C20.0916 16.5189 20.0938 17.3132 19.7249 17.9604C19.356 18.6076 18.6714 19.0104 17.9188 19.0186L6.07279 19.0186C5.32791 19.0104 4.64331 18.6076 4.27442 17.9604C3.90553 17.3132 3.90775 16.5189 4.28594 15.8641L10.2051 5.98253ZM5.49042 16.5727C5.36625 16.7878 5.36551 17.0525 5.48848 17.2683C5.61144 17.484 5.83964 17.6183 6.08025 17.6209L17.9109 17.621C18.1592 17.6183 18.3874 17.484 18.5104 17.2683C18.6334 17.0525 18.6326 16.7878 18.5141 16.5824L12.5969 6.70409C12.4703 6.49523 12.2437 6.36768 11.9994 6.36768C11.7557 6.36768 11.5296 6.49467 11.4028 6.70271L5.49042 16.5727ZM11.3008 9.93369C11.3008 9.54773 11.6137 9.23485 11.9996 9.23485C12.3856 9.23485 12.6985 9.54773 12.6985 9.93369V12.7291C12.6985 13.115 12.3856 13.4279 11.9996 13.4279C11.6137 13.4279 11.3008 13.115 11.3008 12.7291V9.93369ZM11.9996 14.1267C11.6137 14.1267 11.3008 14.4396 11.3008 14.8256C11.3008 15.2115 11.6137 15.5244 11.9996 15.5244C12.3856 15.5244 12.6985 15.2115 12.6985 14.8256C12.6985 14.4396 12.3856 14.1267 11.9996 14.1267Z" fill="#1991FF"/>
</svg>
