<svg width="24" height="24" viewBox="0 0 24 24" fill="none" xmlns="http://www.w3.org/2000/svg">
<path fill-rule="evenodd" clip-rule="evenodd" d="M12 20C7.58172 20 4 16.4183 4 12C4 7.58172 7.58172 4 12 4C16.4183 4 20 7.58172 20 12C20 16.4183 16.4183 20 12 20ZM12 18.5455C15.615 18.5455 18.5455 15.615 18.5455 12C18.5455 8.38505 15.615 5.45455 12 5.45455C8.38505 5.45455 5.45455 8.38505 5.45455 12C5.45455 15.615 8.38505 18.5455 12 18.5455ZM11.2729 9.09091C11.2729 8.68924 11.5986 8.36363 12.0002 8.36363C12.4019 8.36363 12.7275 8.68924 12.7275 9.09091V12C12.7275 12.4017 12.4019 12.7273 12.0002 12.7273C11.5986 12.7273 11.2729 12.4017 11.2729 12V9.09091ZM12.0002 14.1818C11.5986 14.1818 11.2729 14.5074 11.2729 14.9091C11.2729 15.3108 11.5986 15.6364 12.0002 15.6364C12.4019 15.6364 12.7275 15.3108 12.7275 14.9091C12.7275 14.5074 12.4019 14.1818 12.0002 14.1818Z" fill="#1991FF"/>
</svg>
