<svg width="24" height="24" viewBox="0 0 24 24" fill="none" xmlns="http://www.w3.org/2000/svg">
<path fill-rule="evenodd" clip-rule="evenodd" d="M20 7.19999C20 6.75817 19.6418 6.39999 19.2 6.39999H4.8C4.35817 6.39999 4 6.75817 4 7.19999C4 7.64182 4.35817 7.99999 4.8 7.99999H19.2C19.6418 7.99999 20 7.64182 20 7.19999ZM16.8 10.4C16.8 9.95816 16.4418 9.59999 16 9.59999H4.8C4.35817 9.59999 4 9.95816 4 10.4C4 10.8418 4.35817 11.2 4.8 11.2H16C16.4418 11.2 16.8 10.8418 16.8 10.4ZM19.2 12.8C19.6418 12.8 20 13.1582 20 13.6C20 14.0418 19.6418 14.4 19.2 14.4H4.8C4.35817 14.4 4 14.0418 4 13.6C4 13.1582 4.35817 12.8 4.8 12.8H19.2ZM16.8 16.8C16.8 16.3582 16.4418 16 16 16H4.8C4.35817 16 4 16.3582 4 16.8C4 17.2418 4.35817 17.6 4.8 17.6H16C16.4418 17.6 16.8 17.2418 16.8 16.8Z" fill="#1991FF"/>
</svg>
