<svg width="24" height="24" viewBox="0 0 24 24" fill="none" xmlns="http://www.w3.org/2000/svg">
<path fill-rule="evenodd" clip-rule="evenodd" d="M19.5 7.5C19.5 7.08579 19.1642 6.75 18.75 6.75H5.25C4.83579 6.75 4.5 7.08579 4.5 7.5C4.5 7.91421 4.83579 8.25 5.25 8.25H18.75C19.1642 8.25 19.5 7.91421 19.5 7.5ZM17.25 10.5C17.25 10.0858 16.9142 9.75 16.5 9.75H7.5C7.08579 9.75 6.75 10.0858 6.75 10.5C6.75 10.9142 7.08579 11.25 7.5 11.25H16.5C16.9142 11.25 17.25 10.9142 17.25 10.5ZM18.75 12.75C19.1642 12.75 19.5 13.0858 19.5 13.5C19.5 13.9142 19.1642 14.25 18.75 14.25H5.25C4.83579 14.25 4.5 13.9142 4.5 13.5C4.5 13.0858 4.83579 12.75 5.25 12.75H18.75ZM17.25 16.5C17.25 16.0858 16.9142 15.75 16.5 15.75H7.5C7.08579 15.75 6.75 16.0858 6.75 16.5C6.75 16.9142 7.08579 17.25 7.5 17.25H16.5C16.9142 17.25 17.25 16.9142 17.25 16.5Z" fill="#1991FF"/>
</svg>
