<svg width="24" height="24" viewBox="0 0 24 24" fill="none" xmlns="http://www.w3.org/2000/svg">
<path fill-rule="evenodd" clip-rule="evenodd" d="M11.2727 6.17455V17.8109H12.7273V6.17455H11.2727ZM10.5456 4.72H13.4547C13.8564 4.72 14.182 5.04561 14.182 5.44727V18.5382C14.182 18.9398 13.8564 19.2655 13.4547 19.2655H10.5456C10.144 19.2655 9.81836 18.9398 9.81836 18.5382V5.44727C9.81836 5.04561 10.144 4.72 10.5456 4.72ZM17.0909 9.81091V17.8109H18.5455V9.81091H17.0909ZM16.3635 8.35637H19.2726C19.6743 8.35637 19.9999 8.68198 19.9999 9.08364V18.5382C19.9999 18.9398 19.6743 19.2655 19.2726 19.2655H16.3635C15.9618 19.2655 15.6362 18.9398 15.6362 18.5382V9.08364C15.6362 8.68198 15.9618 8.35637 16.3635 8.35637ZM5.45455 17.8109V13.4473H6.90909V17.8109H5.45455ZM7.63636 11.9927H4.72727C4.32561 11.9927 4 12.3183 4 12.72V18.5382C4 18.9398 4.32561 19.2654 4.72727 19.2654H7.63636C8.03803 19.2654 8.36364 18.9398 8.36364 18.5382V12.72C8.36364 12.3183 8.03803 11.9927 7.63636 11.9927Z" fill="#1991FF"/>
</svg>
