<svg width="24" height="24" viewBox="0 0 24 24" fill="none" xmlns="http://www.w3.org/2000/svg">
<path fill-rule="evenodd" clip-rule="evenodd" d="M4.19526 4.19526C3.93491 4.45561 3.93491 4.87772 4.19526 5.13807L7.05478 7.99759C6.79838 8.63272 6.66613 9.31281 6.66699 10.0008L6.66699 13.3333C6.66699 14.0697 6.07004 14.6667 5.33366 14.6667C4.44477 14.6667 4.44477 16 5.33366 16H15.0572L18.8619 19.8047C19.1223 20.0651 19.5444 20.0651 19.8047 19.8047C20.0651 19.5444 20.0651 19.1223 19.8047 18.8619L15.8174 14.8746C15.8093 14.866 15.8009 14.8577 15.7924 14.8496L8.34157 7.39876C8.33097 7.38738 8.31993 7.37634 8.30846 7.36565L5.13807 4.19526C4.87772 3.93491 4.45561 3.93491 4.19526 4.19526ZM8.11216 9.05497C8.03773 9.36318 7.99992 9.68034 8.00033 9.99999V13.3333C8.00033 13.819 7.87047 14.2744 7.64357 14.6667H13.7238L8.11216 9.05497ZM9.12643 6.26095C9.30737 6.58161 9.714 6.69488 10.0347 6.51394C11.2734 5.81494 12.7902 5.82636 14.0183 6.54393C15.2464 7.26151 16.0011 8.57728 16.0004 9.99965L16.0004 12.6667C16.0004 13.0349 16.2989 13.3333 16.667 13.3333C17.0352 13.3333 17.3337 13.0349 17.3337 12.6667L17.3337 9.99999C17.3347 8.10383 16.3285 6.34947 14.691 5.39271C13.0535 4.43595 11.0311 4.42072 9.37942 5.35271C9.05876 5.53365 8.94549 5.94028 9.12643 6.26095ZM13.488 17.4233C13.1695 17.2386 12.7615 17.347 12.5768 17.6655C12.4575 17.8711 12.2378 17.9976 12.0001 17.9976C11.7624 17.9976 11.5427 17.8711 11.4235 17.6655C11.2387 17.347 10.8308 17.2386 10.5123 17.4233C10.1938 17.6081 10.0854 18.016 10.2701 18.3345C10.6279 18.9513 11.2871 19.331 12.0001 19.331C12.7132 19.331 13.3723 18.9513 13.7301 18.3345C13.9149 18.016 13.8065 17.6081 13.488 17.4233Z" fill="#1991FF"/>
</svg>
