<svg width="24" height="24" viewBox="0 0 24 24" fill="none" xmlns="http://www.w3.org/2000/svg">
<path fill-rule="evenodd" clip-rule="evenodd" d="M19.2727 16.3656H4.72727C3.75758 16.3656 3.75758 14.9108 4.72727 14.9108C5.5306 14.9108 6.18182 14.2595 6.18182 13.4561V9.81912C6.18182 6.60531 8.78671 4 12 4C15.2133 4 17.8182 6.60531 17.8182 9.81912V13.4561C17.8182 14.2595 18.4694 14.9108 19.2727 14.9108C20.2424 14.9108 20.2424 16.3656 19.2727 16.3656ZM13.8875 18.9128C13.4972 19.5858 12.7781 20 12.0002 20C11.2223 20 10.5033 19.5858 10.1129 18.9128C9.83169 18.4279 10.1815 17.8204 10.742 17.8204H13.2584C13.8189 17.8204 14.1687 18.4279 13.8875 18.9128Z" fill="#1991FF"/>
</svg>
