<svg width="24" height="24" viewBox="0 0 24 24" fill="none" xmlns="http://www.w3.org/2000/svg">
<path fill-rule="evenodd" clip-rule="evenodd" d="M16.3636 13.4545V9.81818C16.3636 7.40821 14.4099 5.45455 12 5.45455C9.59001 5.45455 7.63634 7.40821 7.63634 9.81818V13.4545C7.63634 13.9844 7.49468 14.4812 7.24716 14.9091H16.7528C16.5053 14.4812 16.3636 13.9844 16.3636 13.4545ZM19.2727 16.3636H4.72727C3.75758 16.3636 3.75758 14.9091 4.72727 14.9091C5.5306 14.9091 6.18182 14.2579 6.18182 13.4545V9.81818C6.18182 6.60489 8.78671 4 12 4C15.2133 4 17.8182 6.60489 17.8182 9.81818V13.4545C17.8182 14.2579 18.4694 14.9091 19.2727 14.9091C20.2424 14.9091 20.2424 16.3636 19.2727 16.3636ZM13.8871 18.9104C13.4967 19.5833 12.7777 19.9974 11.9998 19.9974C11.2219 19.9974 10.5029 19.5833 10.1125 18.9104C9.83128 18.4255 10.1811 17.8182 10.7416 17.8182H13.258C13.8185 17.8182 14.1683 18.4255 13.8871 18.9104Z" fill="#1991FF"/>
</svg>
