<svg width="24" height="24" viewBox="0 0 24 24" fill="none" xmlns="http://www.w3.org/2000/svg">
<path fill-rule="evenodd" clip-rule="evenodd" d="M15.716 5.64485C16.4248 5.63234 17.2886 5.76063 18.2263 5.99435L18.4144 6.04123V6.56676C18.9313 6.53878 19.4004 6.69675 19.8341 7.07527C19.9411 7.18981 20.0012 7.34538 20 7.50122V17.7504C19.9999 18.0765 19.7231 18.3634 19.3996 18.3634H4.60038C4.27693 18.3634 4.00005 18.0765 4.00001 17.7503L4.00002 7.50308C3.99884 7.34538 4.0589 7.18981 4.17032 7.07062C4.49712 6.73834 5.06047 6.54496 5.58563 6.56577V6.04206L5.77269 5.99461C6.55415 5.79635 7.14691 5.69801 7.92415 5.65059C9.32984 5.60984 10.4171 5.93367 12 6.72717C13.4567 5.99655 14.4606 5.67424 15.716 5.64485ZM7.96255 6.8651C7.61697 6.87767 7.22758 6.93036 6.78666 7.02237L6.78677 9.85726L6.78688 12.2098L6.78671 15.5683C8.39535 14.9279 9.80955 14.9183 11.3998 15.5462V7.78592C10.1713 7.18184 8.99649 6.82993 7.96255 6.8651ZM12.6006 7.79986C12.9127 7.66301 13.6154 7.35668 13.8366 7.27089C14.5462 6.99564 15.1419 6.86988 15.8801 6.87095C16.2941 6.87554 16.7359 6.92518 17.2135 7.02275C17.2131 7.48966 17.2127 7.9728 17.2125 8.47726C17.2121 9.73723 17.2122 10.8048 17.213 12.9275C17.2135 14.298 17.2137 14.9372 17.2137 15.5683C15.605 14.9279 14.1908 14.9182 12.6006 15.5462V7.79986ZM5.20094 7.8436V17.1373H5.58572V7.80385C5.44568 7.77718 5.326 7.78905 5.20094 7.8436ZM11.3996 16.8676V17.1373H6.25654C8.17146 16.2855 9.89147 16.2204 11.3996 16.8676ZM18.4143 7.79873V17.1373H18.7991V7.83937C18.6808 7.78777 18.5483 7.77372 18.4143 7.79873ZM12.6006 17.1373V16.8665C14.0272 16.2524 16.0072 16.348 17.7532 17.1373H12.6006Z" fill="#1991FF"/>
</svg>
