<svg width="24" height="24" viewBox="0 0 24 24" fill="none" xmlns="http://www.w3.org/2000/svg">
<path fill-rule="evenodd" clip-rule="evenodd" d="M16.5 17.2926V6.75C16.5 6.33579 16.1642 6 15.75 6H8.25C7.83579 6 7.5 6.33579 7.5 6.75V17.2926L11.5641 14.3897C11.8248 14.2034 12.1752 14.2034 12.4359 14.3897L16.5 17.2926ZM12 15.9217L7.18593 19.3603C6.68953 19.7149 6 19.36 6 18.75V6.75C6 5.50736 7.00736 4.5 8.25 4.5H15.75C16.9926 4.5 18 5.50736 18 6.75V18.75C18 19.36 17.3105 19.7149 16.8141 19.3603L12 15.9217Z" fill="#1991FF"/>
</svg>
