<svg width="24" height="24" viewBox="0 0 24 24" fill="none" xmlns="http://www.w3.org/2000/svg">
<path fill-rule="evenodd" clip-rule="evenodd" d="M14.182 7V6.18182C14.182 5.78016 13.8563 5.45455 13.4547 5.45455H10.5456C10.1439 5.45455 9.81832 5.78016 9.81832 6.18182V7H14.182ZM8.36377 7V6.18182C8.36377 4.97683 9.3406 4 10.5456 4H13.4547C14.6597 4 15.6365 4.97683 15.6365 6.18182V7H17.8182C19.0232 7 20 7.97683 20 9.18182V16.4545C20 17.6595 19.0232 18.6364 17.8182 18.6364H6.18182C4.97683 18.6364 4 17.6595 4 16.4545V9.18182C4 7.97683 4.97683 7 6.18182 7H8.36377Z" fill="#1991FF"/>
</svg>
