<svg width="24" height="24" viewBox="0 0 24 24" fill="none" xmlns="http://www.w3.org/2000/svg">
<path fill-rule="evenodd" clip-rule="evenodd" d="M15.6365 17.0909H17.8182C18.2198 17.0909 18.5455 16.7653 18.5455 16.3636V9.09091C18.5455 8.68925 18.2198 8.36364 17.8182 8.36364H15.6365V17.0909ZM15.6365 6.90909H17.8182C19.0232 6.90909 20 7.88592 20 9.09091V16.3636C20 17.5686 19.0232 18.5455 17.8182 18.5455H14.9113C14.9106 18.5455 14.9099 18.5455 14.9092 18.5455C14.9085 18.5455 14.9078 18.5455 14.9072 18.5455H9.0931C9.09242 18.5455 9.09173 18.5455 9.09104 18.5455C9.09035 18.5455 9.08967 18.5455 9.08898 18.5455H6.18182C4.97683 18.5455 4 17.5686 4 16.3636V9.09091C4 7.88592 4.97683 6.90909 6.18182 6.90909H8.36377V6.18182C8.36377 4.97683 9.3406 4 10.5456 4H13.4547C14.6597 4 15.6365 4.97683 15.6365 6.18182V6.90909ZM9.81832 6.90909V6.18182C9.81832 5.78016 10.1439 5.45455 10.5456 5.45455H13.4547C13.8563 5.45455 14.182 5.78016 14.182 6.18182V6.90909H9.81832ZM9.81832 8.36364H14.182V17.0909H9.81832V8.36364ZM8.36377 8.36364H6.18182C5.78016 8.36364 5.45455 8.68925 5.45455 9.09091V16.3636C5.45455 16.7653 5.78016 17.0909 6.18182 17.0909H8.36377V8.36364Z" fill="#1991FF"/>
</svg>
