<svg xmlns="http://www.w3.org/2000/svg" width="24" height="24" viewBox="0 0 24 24"><title>calendar</title><path d="M17.08,5.45H15.63V4.73a.73.73,0,0,0-1.46,0v.72H9.81V4.73a.73.73,0,1,0-1.45,0v.72H6.9A2.19,2.19,0,0,0,4.72,7.64V17.82A2.19,2.19,0,0,0,6.9,20H17.08a2.19,2.19,0,0,0,2.19-2.18V7.64A2.19,2.19,0,0,0,17.08,5.45ZM6.9,6.91H8.36v.73a.73.73,0,0,0,1.45,0V6.91h4.36v.73a.73.73,0,0,0,1.46,0V6.91h1.45a.73.73,0,0,1,.73.73V9.82H6.17V7.64A.73.73,0,0,1,6.9,6.91ZM17.08,18.55H6.9a.73.73,0,0,1-.73-.73V11.27H17.81v6.55A.73.73,0,0,1,17.08,18.55Z" fill="#1991ff"/></svg>