<svg width="24" height="24" viewBox="0 0 24 24" fill="none" xmlns="http://www.w3.org/2000/svg">
<path fill-rule="evenodd" clip-rule="evenodd" d="M4.19526 4.19526C3.93491 4.45561 3.93491 4.87772 4.19526 5.13807L6.39052 7.33333H6C4.89543 7.33333 4 8.22876 4 9.33333V16.6667C4 17.7712 4.89543 18.6667 6 18.6667H17.7239L18.8619 19.8047C19.1223 20.0651 19.5444 20.0651 19.8047 19.8047C20.0651 19.5444 20.0651 19.1223 19.8047 18.8619L18.4722 17.5294C18.4717 17.5289 18.4711 17.5283 18.4706 17.5278L14.6653 13.7225C14.6609 13.718 14.6564 13.7134 14.6518 13.709L10.9576 10.0148C10.9531 10.0102 10.9486 10.0057 10.9441 10.0013L8.47212 7.52931C8.47164 7.52883 8.47117 7.52836 8.47069 7.52788L5.13807 4.19526C4.87772 3.93491 4.45561 3.93491 4.19526 4.19526ZM7.72386 8.66667H6C5.63181 8.66667 5.33333 8.96514 5.33333 9.33333V16.6667C5.33333 17.0349 5.63181 17.3333 6 17.3333H16.3905L14.2158 15.1586C13.4425 15.8545 12.3728 16.1604 11.3235 15.9476C10.0109 15.6815 8.98506 14.6557 8.71895 13.3431C8.50621 12.2938 8.81206 11.2241 9.50802 10.4508L7.72386 8.66667ZM10.453 11.3959C10.0682 11.855 9.90285 12.4722 10.0257 13.0782C10.1854 13.8657 10.8009 14.4812 11.5884 14.6409C12.1944 14.7637 12.8116 14.5984 13.2707 14.2135L10.453 11.3959ZM10 6.66667H13.6432L14.7786 8.3698C14.9023 8.55526 15.1104 8.66667 15.3333 8.66667H18C18.3682 8.66667 18.6667 8.96514 18.6667 9.33333V15.56C18.6667 15.9282 18.9651 16.2267 19.3333 16.2267C19.7015 16.2267 20 15.9282 20 15.56V9.33333C20 8.22876 19.1046 7.33333 18 7.33333H15.6901L14.5547 5.6302C14.4311 5.44473 14.2229 5.33333 14 5.33333H10C9.63181 5.33333 9.33333 5.63181 9.33333 6C9.33333 6.36819 9.63181 6.66667 10 6.66667Z" fill="#1991FF"/>
</svg>
