<svg width="24" height="24" viewBox="0 0 24 24" fill="none" xmlns="http://www.w3.org/2000/svg">
<path fill-rule="evenodd" clip-rule="evenodd" d="M9.22137 8.36647L10.3568 6.66334H13.6432L14.7786 8.36647C14.9023 8.55193 15.1104 8.66334 15.3333 8.66334H18C18.3682 8.66334 18.6667 8.96181 18.6667 9.33V16.6633C18.6667 17.0315 18.3682 17.33 18 17.33H6C5.63181 17.33 5.33333 17.0315 5.33333 16.6633V9.33C5.33333 8.96181 5.63181 8.66334 6 8.66334H8.66667C8.88957 8.66334 9.09772 8.55193 9.22137 8.36647ZM18 7.33H15.6901L14.5547 5.62687C14.4311 5.4414 14.2229 5.33 14 5.33H10C9.7771 5.33 9.56894 5.4414 9.4453 5.62687L8.30988 7.33H6C4.89543 7.33 4 8.22543 4 9.33V16.6633C4 17.7679 4.89543 18.6633 6 18.6633H18C19.1046 18.6633 20 17.7679 20 16.6633V9.33C20 8.22543 19.1046 7.33 18 7.33ZM8.6665 12.6633C8.6665 14.5043 10.1589 15.9967 11.9998 15.9967C13.8408 15.9967 15.3332 14.5043 15.3332 12.6633C15.3332 10.8224 13.8408 9.33 11.9998 9.33C10.1589 9.33 8.6665 10.8224 8.6665 12.6633ZM14 12.6633C14 13.7679 13.1046 14.6633 12 14.6633C10.8954 14.6633 10 13.7679 10 12.6633C10 11.5588 10.8954 10.6633 12 10.6633C13.1046 10.6633 14 11.5588 14 12.6633Z" fill="#1991FF"/>
</svg>
