<svg width="24" height="24" viewBox="0 0 24 24" fill="none" xmlns="http://www.w3.org/2000/svg">
<path fill-rule="evenodd" clip-rule="evenodd" d="M8 15.2C7.78783 15.2 7.58434 15.2843 7.43431 15.4343L5.6 17.2686V6.4C5.6 5.95817 5.95817 5.6 6.4 5.6H17.6C18.0418 5.6 18.4 5.95817 18.4 6.4V14.4C18.4 14.8418 18.0418 15.2 17.6 15.2H8ZM5.36569 19.7657L8.33137 16.8H17.6C18.9255 16.8 20 15.7255 20 14.4V6.4C20 5.07452 18.9255 4 17.6 4H6.4C5.07452 4 4 5.07452 4 6.4V19.2C4 19.9127 4.86171 20.2697 5.36569 19.7657ZM12.2104 7.1008C13.4488 7.1008 14.2072 7.7248 14.2072 8.6176C14.2072 9.41669 13.6861 9.79453 13.238 10.1194C12.9002 10.3643 12.604 10.5791 12.604 10.9216C12.604 10.9881 12.6121 11.0301 12.6198 11.0693C12.6265 11.1037 12.6328 11.1359 12.6328 11.1808C12.6328 11.4208 12.4504 11.6896 12.0952 11.6896C11.7304 11.6896 11.4136 11.3824 11.4136 10.7968C11.4136 10.1482 11.8653 9.82457 12.2559 9.54472C12.5532 9.33163 12.8152 9.14395 12.8152 8.8576C12.8152 8.56 12.5944 8.3104 12.0664 8.3104C11.7784 8.3104 11.5096 8.4064 11.2792 8.56C11.164 8.6368 11.02 8.6752 10.876 8.6752C10.5688 8.6752 10.3096 8.464 10.3096 8.1184C10.3096 8.0224 10.3288 7.936 10.3672 7.8592C10.6264 7.3504 11.596 7.1008 12.2104 7.1008ZM12.1912 12.1504C12.6136 12.1504 12.9688 12.5056 12.9688 12.928C12.9688 13.3504 12.6136 13.7056 12.1912 13.7056C11.7688 13.7056 11.4136 13.3504 11.4136 12.928C11.4136 12.5056 11.7688 12.1504 12.1912 12.1504Z" fill="#1991FF"/>
</svg>
