<svg width="24" height="24" viewBox="0 0 24 24" fill="none" xmlns="http://www.w3.org/2000/svg">
<path fill-rule="evenodd" clip-rule="evenodd" d="M7.43431 15.4343C7.58434 15.2843 7.78783 15.2 8 15.2H17.6C18.0418 15.2 18.4 14.8418 18.4 14.4V6.4C18.4 5.95817 18.0418 5.6 17.6 5.6H6.4C5.95817 5.6 5.6 5.95817 5.6 6.4V17.2686L7.43431 15.4343ZM8.33137 16.8L5.36569 19.7657C4.86171 20.2697 4 19.9127 4 19.2V6.4C4 5.07452 5.07452 4 6.4 4H17.6C18.9255 4 20 5.07452 20 6.4V14.4C20 15.7255 18.9255 16.8 17.6 16.8H8.33137Z" fill="#1991FF"/>
</svg>
