<svg width="24" height="24" viewBox="0 0 24 24" fill="none" xmlns="http://www.w3.org/2000/svg">
<path fill-rule="evenodd" clip-rule="evenodd" d="M7 4C6.44772 4 6 4.44772 6 5V19C6 19.5523 6.44772 20 7 20C7.55228 20 8 19.5523 8 19V5C8 4.44772 7.55228 4 7 4ZM18.2649 18.0504L12.2159 12.0014L18.2649 5.9524C18.7112 5.50608 18.7112 4.78247 18.2649 4.33615C17.8186 3.88984 17.0949 3.88984 16.6486 4.33615L9.79149 11.1933C9.34517 11.6396 9.34517 12.3632 9.79149 12.8095L16.6486 19.6667C17.0949 20.113 17.8186 20.113 18.2649 19.6667C18.7112 19.2204 18.7112 18.4968 18.2649 18.0504Z" fill="#1991FF"/>
</svg>
