<svg width="24" height="24" viewBox="0 0 24 24" fill="none" xmlns="http://www.w3.org/2000/svg">
<path fill-rule="evenodd" clip-rule="evenodd" d="M17.5996 20.0014C18.1519 20.0014 18.5996 19.5537 18.5996 19.0014L18.5996 5.00142C18.5996 4.44913 18.1519 4.00142 17.5996 4.00142C17.0473 4.00142 16.5996 4.44913 16.5996 5.00142L16.5996 19.0014C16.5996 19.5537 17.0473 20.0014 17.5996 20.0014ZM6.33474 5.95098L12.3838 12L6.33474 18.049C5.88842 18.4953 5.88842 19.219 6.33473 19.6653C6.78105 20.1116 7.50467 20.1116 7.95098 19.6653L14.8081 12.8081C15.2544 12.3618 15.2544 11.6382 14.8081 11.1919L7.95098 4.33473C7.50467 3.88842 6.78105 3.88842 6.33474 4.33473C5.88842 4.78105 5.88842 5.50466 6.33474 5.95098Z" fill="#1991FF"/>
</svg>
