<svg width="24" height="24" viewBox="0 0 24 24" fill="none" xmlns="http://www.w3.org/2000/svg">
<path fill-rule="evenodd" clip-rule="evenodd" d="M14.25 3.75H12.75V5.25H14.25V3.75ZM15.75 5.25H17.25V3.75H15.75V5.25ZM18.75 8.25H20.25V6.75H18.75V8.25ZM20.25 9.75H18.75V11.25H20.25V9.75ZM18.75 14.25H20.25V12.75H18.75V14.25ZM11.25 5.25V3.75H9.75V5.25H11.25ZM17.25 17.25V15.75H15.75V17.25H17.25ZM14.25 15.75H12.75V17.25H14.25V15.75ZM11.25 15.75H9.75V17.25H11.25V15.75ZM8.25 15.75V17.25C7.425 17.25 6.75 16.575 6.75 15.75H8.25ZM6.75 14.25H8.25V12.75H6.75V14.25ZM8.25 11.25V9.75H6.75V11.25H8.25ZM8.25 8.25V6.75H6.75V8.25H8.25ZM6.75 5.25H8.25V3.75C7.425 3.75 6.75 4.425 6.75 5.25ZM20.25 15.75H18.75V17.25C19.575 17.25 20.25 16.575 20.25 15.75ZM18.75 3.75V5.25H20.25C20.25 4.425 19.575 3.75 18.75 3.75ZM5.25 6.75H3.75V18.75C3.75 19.575 4.425 20.25 5.25 20.25H17.25V18.75H5.25V6.75ZM12.75 7.5C12.75 7.08579 13.0858 6.75 13.5 6.75C13.9142 6.75 14.25 7.08579 14.25 7.5V9.75H16.5C16.9142 9.75 17.25 10.0858 17.25 10.5C17.25 10.9142 16.9142 11.25 16.5 11.25H14.25V13.5C14.25 13.9142 13.9142 14.25 13.5 14.25C13.0858 14.25 12.75 13.9142 12.75 13.5V11.25H10.5C10.0858 11.25 9.75 10.9142 9.75 10.5C9.75 10.0858 10.0858 9.75 10.5 9.75H12.75V7.5Z" fill="#1991FF"/>
</svg>
