<svg width="24" height="24" viewBox="0 0 24 24" fill="none" xmlns="http://www.w3.org/2000/svg">
<path fill-rule="evenodd" clip-rule="evenodd" d="M5.45455 6.90454V17.0864H6.90909V6.90454H5.45455ZM4.72727 5.45H7.63636C8.03803 5.45 8.36364 5.77561 8.36364 6.17727V17.8136C8.36364 18.2153 8.03803 18.5409 7.63636 18.5409H4.72727C4.32561 18.5409 4 18.2153 4 17.8136V6.17727C4 5.77561 4.32561 5.45 4.72727 5.45ZM11.2727 6.90454V17.0864H12.7273V6.90454H11.2727ZM10.5456 5.45H13.4547C13.8564 5.45 14.182 5.77561 14.182 6.17727V17.8136C14.182 18.2153 13.8564 18.5409 13.4547 18.5409H10.5456C10.144 18.5409 9.81836 18.2153 9.81836 17.8136V6.17727C9.81836 5.77561 10.144 5.45 10.5456 5.45ZM17.0909 17.0864V6.90454H18.5455V17.0864H17.0909ZM19.2726 5.45H16.3635C15.9618 5.45 15.6362 5.77561 15.6362 6.17727V17.8136C15.6362 18.2153 15.9618 18.5409 16.3635 18.5409H19.2726C19.6743 18.5409 19.9999 18.2153 19.9999 17.8136V6.17727C19.9999 5.77561 19.6743 5.45 19.2726 5.45Z" fill="#1991FF"/>
</svg>
