<svg width="24" height="24" viewBox="0 0 24 24" fill="none" xmlns="http://www.w3.org/2000/svg">
<path fill-rule="evenodd" clip-rule="evenodd" d="M16.8076 14.4054V16.0208H15.1922V14.4054H16.8076ZM16.8076 11.2131V12.79H15.1922V11.2131H16.8076ZM18.423 17.5977V9.59769H11.9999V11.2131H13.6153V12.79H11.9999V14.4054H13.6153V16.0208H11.9999V17.5977H18.423ZM10.3845 7.98231V6.40538H8.80759V7.98231H10.3845ZM10.3845 11.2131V9.59769H8.80759V11.2131H10.3845ZM10.3845 14.4054V12.79H8.80759V14.4054H10.3845ZM10.3845 17.5977V16.0208H8.80759V17.5977H10.3845ZM7.19238 7.98231V6.40538H5.57699V7.98231H7.19238ZM7.19238 11.2131V9.59769H5.57699V11.2131H7.19238ZM7.19238 14.4054V12.79H5.57699V14.4054H7.19238ZM7.19238 17.5977V16.0208H5.57699V17.5977H7.19238ZM12 7.98231H20V19.2131H4V4.79H12V7.98231Z" fill="#1991FF"/>
</svg>
