<svg width="24" height="24" viewBox="0 0 24 24" fill="none" xmlns="http://www.w3.org/2000/svg">
<path fill-rule="evenodd" clip-rule="evenodd" d="M4 12C4 16.4183 7.58172 20 12 20C16.4183 20 20 16.4183 20 12C20 7.58172 16.4183 4 12 4C7.58172 4 4 7.58172 4 12ZM18.5455 12C18.5455 15.615 15.615 18.5455 12 18.5455C8.38505 18.5455 5.45455 15.615 5.45455 12C5.45455 8.38505 8.38505 5.45455 12 5.45455C15.615 5.45455 18.5455 8.38505 18.5455 12ZM10.0663 13.9337L11.0331 11.0331L13.9337 10.0663L12.9669 12.9669L10.0663 13.9337ZM14.2319 13.7718L15.7737 9.14635C15.9633 8.5778 15.4224 8.0369 14.8538 8.22641L10.2284 9.76823C10.0112 9.84062 9.84077 10.011 9.76839 10.2282L8.22657 14.8537C8.03705 15.4222 8.57795 15.9631 9.1465 15.7736L13.772 14.2318C13.9891 14.1594 14.1595 13.989 14.2319 13.7718Z" fill="#1991FF"/>
</svg>
