<svg width="24" height="24" viewBox="0 0 24 24" fill="none" xmlns="http://www.w3.org/2000/svg">
<path fill-rule="evenodd" clip-rule="evenodd" d="M8.09258 4.00003C7.72441 3.99683 7.42335 4.29271 7.42016 4.66089L7.39646 7.39632L4.66089 7.42002C4.29271 7.42321 3.99683 7.72426 4.00003 8.09244C4.00322 8.46061 4.30427 8.75649 4.67244 8.7533L7.3849 8.72979L7.3335 14.6609C7.33347 15.7712 8.2289 16.6667 9.33347 16.6667H15.3333V19.3333C15.3333 19.7015 15.6318 20 16 20C16.3682 20 16.6667 19.7015 16.6667 19.3333V16.6667H19.3335C19.7017 16.6667 20.0001 16.3682 20.0001 16C20.0001 15.6318 19.7017 15.3333 19.3335 15.3333H16.6667V9.33333C16.6667 8.22876 15.7712 7.33333 14.6667 7.33333L8.72993 7.38477L8.75345 4.67244C8.75664 4.30427 8.46076 4.00322 8.09258 4.00003ZM8.71837 8.71824L8.6668 14.6667C8.6668 15.0349 8.96528 15.3333 9.33347 15.3333H15.3333V9.33333C15.3333 8.96514 15.0349 8.66666 14.6724 8.66664L8.71837 8.71824Z" fill="#1991FF"/>
</svg>
