<svg width="24" height="24" viewBox="0 0 24 24" fill="none" xmlns="http://www.w3.org/2000/svg">
<path fill-rule="evenodd" clip-rule="evenodd" d="M12.3017 5.43068C12.1112 5.33628 11.8876 5.33638 11.6987 5.43024L6.72382 7.91766L11.9996 10.5555L17.2755 7.91757L12.3017 5.43068ZM5.87998 15.2372L5.88 9.01621L11.3198 11.7361V18.3821L6.25209 15.8482C6.02311 15.7328 5.87818 15.4957 5.87998 15.2372ZM12.6798 18.3786L17.7421 15.8474C17.9732 15.7326 18.1194 15.4969 18.1195 15.2392L18.1195 9.01602L12.6798 11.7359V18.3786ZM12.9075 4.21311L18.3473 6.933C19.0405 7.27747 19.479 7.98463 19.4794 8.75908V15.2396C19.479 16.0137 19.0405 16.7208 18.3488 17.0645L12.9092 19.7843C12.3346 20.0719 11.6581 20.0719 11.0837 19.7844L5.64204 17.0636C4.94948 16.7146 4.51469 16.0032 4.52007 15.2324L4.52007 8.75872C4.52048 7.98463 4.959 7.27747 5.65072 6.93375L11.092 4.21311C11.6638 3.92896 12.3357 3.92896 12.9075 4.21311Z" fill="#1991FF"/>
</svg>
