<svg width="24" height="24" viewBox="0 0 24 24" fill="none" xmlns="http://www.w3.org/2000/svg">
<path fill-rule="evenodd" clip-rule="evenodd" d="M11.9929 4C11.5912 4 11.2656 4.32561 11.2656 4.72727V13.1534L9.59798 11.4857C9.31396 11.2017 8.85348 11.2017 8.56946 11.4857C8.28544 11.7698 8.28544 12.2303 8.56946 12.5143L11.4785 15.4234C11.5604 15.5052 11.6569 15.5635 11.7596 15.5981C11.8206 15.6188 11.8852 15.6315 11.9522 15.6352C11.974 15.6365 11.9958 15.6367 12.0177 15.636C12.1734 15.6307 12.3167 15.5766 12.4327 15.4884C12.4614 15.4666 12.4884 15.4426 12.5136 15.4169L15.4162 12.5143C15.7002 12.2303 15.7002 11.7698 15.4162 11.4857C15.1321 11.2017 14.6717 11.2017 14.3876 11.4857L12.7202 13.1532V4.72727C12.7202 4.32561 12.3946 4 11.9929 4ZM4.72021 15.6364C4.72021 15.2347 5.04583 14.9091 5.44749 14.9091C5.84915 14.9091 6.17476 15.2347 6.17476 15.6364V17.8182C6.17476 18.2198 6.50037 18.5455 6.90203 18.5455H17.0839C17.4855 18.5455 17.8111 18.2198 17.8111 17.8182V15.6364C17.8111 15.2347 18.1367 14.9091 18.5384 14.9091C18.9401 14.9091 19.2657 15.2347 19.2657 15.6364V17.8182C19.2657 19.0232 18.2888 20 17.0839 20H6.90203C5.69705 20 4.72021 19.0232 4.72021 17.8182V15.6364Z" fill="#1991FF"/>
</svg>
