<svg width="24" height="26" viewBox="0 0 24 26" fill="none" xmlns="http://www.w3.org/2000/svg">
<path fill-rule="evenodd" clip-rule="evenodd" d="M15.9988 10.1195H15.6533C14.8975 7.79113 12.9762 6.109 10.6829 5.82285C8.21504 5.51492 5.82745 6.88726 4.67918 9.27366C3.53091 11.6601 3.85971 14.5664 5.50597 16.5817C5.74983 16.8803 6.17092 16.9081 6.4465 16.6439C6.72207 16.3797 6.74778 15.9236 6.50391 15.625C5.22349 14.0575 4.96776 11.7971 5.86086 9.94097C6.75396 8.08488 8.61097 7.01751 10.5304 7.257C12.4498 7.4965 14.0342 8.99328 14.5144 11.0207C14.59 11.3399 14.8556 11.5631 15.1598 11.5631H15.9993C17.1625 11.5622 18.1915 12.3777 18.5427 13.5784C18.8938 14.779 18.486 16.0877 17.535 16.8122C17.234 17.0415 17.1616 17.4918 17.3732 17.8178C17.5849 18.1439 18.0005 18.2224 18.3015 17.9931C19.728 16.9064 20.3397 14.9433 19.813 13.1423C19.2863 11.3413 17.7427 10.118 15.9988 10.1195ZM11.3354 13.0068C11.3354 12.6081 11.6338 12.285 12.0017 12.285C12.3697 12.285 12.668 12.6081 12.668 13.0068V17.7601L14.1954 16.1055C14.4556 15.8236 14.8775 15.8236 15.1377 16.1055C15.3979 16.3873 15.3979 16.8444 15.1377 17.1263L12.4857 19.9992C12.3643 20.1382 12.1924 20.225 12.0017 20.225C11.9654 20.225 11.9298 20.2218 11.895 20.2157C11.7615 20.1925 11.6332 20.1251 11.5302 20.0135L8.86507 17.1263C8.60487 16.8444 8.60487 16.3873 8.86507 16.1055C9.12528 15.8236 9.54715 15.8236 9.80736 16.1055L11.3354 17.7609V13.0068Z" fill="#1991FF"/>
</svg>
