<svg width="24" height="24" viewBox="0 0 24 24" fill="none" xmlns="http://www.w3.org/2000/svg">
<path fill-rule="evenodd" clip-rule="evenodd" d="M5.75 6.75C5.75 6.19772 6.19772 5.75 6.75 5.75H7.25C7.80228 5.75 8.25 6.19772 8.25 6.75V7.25C8.25 7.80228 7.80228 8.25 7.25 8.25H6.75C6.19772 8.25 5.75 7.80228 5.75 7.25V6.75ZM5.75 11.75C5.75 11.1977 6.19772 10.75 6.75 10.75H7.25C7.80228 10.75 8.25 11.1977 8.25 11.75V12.25C8.25 12.8023 7.80228 13.25 7.25 13.25H6.75C6.19772 13.25 5.75 12.8023 5.75 12.25V11.75ZM6.75 15.75C6.19772 15.75 5.75 16.1977 5.75 16.75V17.25C5.75 17.8023 6.19772 18.25 6.75 18.25H7.25C7.80228 18.25 8.25 17.8023 8.25 17.25V16.75C8.25 16.1977 7.80228 15.75 7.25 15.75H6.75ZM10.75 6.75C10.75 6.19772 11.1977 5.75 11.75 5.75H12.25C12.8023 5.75 13.25 6.19772 13.25 6.75V7.25C13.25 7.80228 12.8023 8.25 12.25 8.25H11.75C11.1977 8.25 10.75 7.80228 10.75 7.25V6.75ZM11.75 10.75C11.1977 10.75 10.75 11.1977 10.75 11.75V12.25C10.75 12.8023 11.1977 13.25 11.75 13.25H12.25C12.8023 13.25 13.25 12.8023 13.25 12.25V11.75C13.25 11.1977 12.8023 10.75 12.25 10.75H11.75ZM10.75 16.75C10.75 16.1977 11.1977 15.75 11.75 15.75H12.25C12.8023 15.75 13.25 16.1977 13.25 16.75V17.25C13.25 17.8023 12.8023 18.25 12.25 18.25H11.75C11.1977 18.25 10.75 17.8023 10.75 17.25V16.75ZM16.75 5.75C16.1977 5.75 15.75 6.19772 15.75 6.75V7.25C15.75 7.80228 16.1977 8.25 16.75 8.25H17.25C17.8023 8.25 18.25 7.80228 18.25 7.25V6.75C18.25 6.19772 17.8023 5.75 17.25 5.75H16.75ZM15.75 11.75C15.75 11.1977 16.1977 10.75 16.75 10.75H17.25C17.8023 10.75 18.25 11.1977 18.25 11.75V12.25C18.25 12.8023 17.8023 13.25 17.25 13.25H16.75C16.1977 13.25 15.75 12.8023 15.75 12.25V11.75ZM16.75 15.75C16.1977 15.75 15.75 16.1977 15.75 16.75V17.25C15.75 17.8023 16.1977 18.25 16.75 18.25H17.25C17.8023 18.25 18.25 17.8023 18.25 17.25V16.75C18.25 16.1977 17.8023 15.75 17.25 15.75H16.75Z" fill="#1991FF"/>
</svg>
