<svg width="24" height="24" viewBox="0 0 24 24" fill="none" xmlns="http://www.w3.org/2000/svg">
<path fill-rule="evenodd" clip-rule="evenodd" d="M14.182 11.9991C14.182 11.9994 14.182 11.9997 14.182 12.0001C14.182 12.0008 14.182 12.0015 14.182 12.0022C14.1809 13.2062 13.2045 14.1818 12.0002 14.1818C10.7953 14.1818 9.81848 13.205 9.81848 12.0001C9.81848 10.7951 10.7953 9.81834 12.0002 9.81834C13.2048 9.81834 14.1814 10.7946 14.182 11.9991ZM15.6362 11.9803C15.6256 9.98115 14.0017 8.36383 12 8.36383C9.99178 8.36383 8.36377 9.99184 8.36377 12.0001C8.36377 14.0083 9.99178 15.6363 12 15.6363C13.0822 15.6363 14.054 15.1636 14.7201 14.4133C15.2475 15.1536 16.1129 15.6363 17.091 15.6363C18.6976 15.6363 20 14.3339 20 12.7273V12.0001C19.9998 8.28248 17.4386 5.05498 13.8183 4.21011C10.198 3.36524 6.47279 5.12568 4.82705 8.45913C3.18132 11.7926 4.04883 15.8205 6.92089 18.1809C9.79295 20.5413 13.9126 20.6121 16.8641 18.3519C17.183 18.1077 17.2435 17.6512 16.9993 17.3323C16.7551 17.0134 16.2986 16.9529 15.9798 17.1971C13.5649 19.0464 10.1943 18.9884 7.84441 17.0572C5.49454 15.1259 4.78476 11.8304 6.13127 9.10302C7.47778 6.37566 10.5257 4.9353 13.4877 5.62656C16.4498 6.31781 18.5453 8.95849 18.5455 12.0001V12.7273C18.5455 13.5306 17.8943 14.1818 17.091 14.1818C16.2877 14.1818 15.6365 13.5306 15.6365 12.7273V12.0001C15.6365 11.9935 15.6364 11.9869 15.6362 11.9803Z" fill="#1991FF"/>
</svg>
