<svg width="24" height="24" viewBox="0 0 24 24" fill="none" xmlns="http://www.w3.org/2000/svg">
<path fill-rule="evenodd" clip-rule="evenodd" d="M16.9393 6H14.25C13.8358 6 13.5 5.66421 13.5 5.25C13.5 4.83579 13.8358 4.5 14.25 4.5H18.75C18.9563 4.5 19.1431 4.58329 19.2787 4.71808C19.2793 4.71861 19.2798 4.71914 19.2803 4.71967C19.2809 4.7202 19.2814 4.72073 19.2819 4.72126C19.353 4.7928 19.4068 4.87511 19.4431 4.96291C19.4798 5.05134 19.5 5.14831 19.5 5.25V9.75C19.5 10.1642 19.1642 10.5 18.75 10.5C18.3358 10.5 18 10.1642 18 9.75V7.06066L11.0303 14.0303C10.7374 14.3232 10.2626 14.3232 9.96967 14.0303C9.67678 13.7374 9.67678 13.2626 9.96967 12.9697L16.9393 6ZM15.75 12.75C15.75 12.3358 16.0858 12 16.5 12C16.9142 12 17.25 12.3358 17.25 12.75V17.25C17.25 18.4926 16.2426 19.5 15 19.5H6.75C5.50736 19.5 4.5 18.4926 4.5 17.25V9C4.5 7.75736 5.50736 6.75 6.75 6.75H11.25C11.6642 6.75 12 7.08579 12 7.5C12 7.91421 11.6642 8.25 11.25 8.25H6.75C6.33579 8.25 6 8.58579 6 9V17.25C6 17.6642 6.33579 18 6.75 18H15C15.4142 18 15.75 17.6642 15.75 17.25V12.75Z" fill="#1991FF"/>
</svg>
