<svg xmlns="http://www.w3.org/2000/svg" width="24" height="24" viewBox="0 0 24 24"><title>eye-off</title><path d="M19.8,18.86l-3.36-3.37h0L13.89,13h0l-2.82-2.82h0L8.52,7.57h0L5.14,4.2a.66.66,0,0,0-.94.94L7.05,8a12.91,12.91,0,0,0-3,3.69.68.68,0,0,0,0,.62,8.78,8.78,0,0,0,.53.9,13.15,13.15,0,0,0,1.5,1.92A8.06,8.06,0,0,0,12,18a7.36,7.36,0,0,0,3.88-1.17l3,3a.66.66,0,0,0,.94-.94Zm-9.11-7.23,1.68,1.68a1.28,1.28,0,0,1-.75,0,1.33,1.33,0,0,1-1-1A1.28,1.28,0,0,1,10.69,11.63Zm1.3,5a6.78,6.78,0,0,1-4.92-2.46,11.47,11.47,0,0,1-1.35-1.74c-.11-.17-.21-.32-.29-.47A11.8,11.8,0,0,1,8,8.93l1.7,1.7a2.67,2.67,0,0,0,3.68,3.68l1.54,1.55A6.07,6.07,0,0,1,12,16.67Zm4.94-6.88a12,12,0,0,1,1.35,1.74c.11.17.21.32.29.47a11,11,0,0,1-1.19,1.7.67.67,0,1,0,1,.86,13.07,13.07,0,0,0,1.52-2.25.66.66,0,0,0,0-.61,7.9,7.9,0,0,0-.53-.89,12.71,12.71,0,0,0-1.5-1.93A8.06,8.06,0,0,0,12,6a6.77,6.77,0,0,0-1.55.18.67.67,0,0,0,.3,1.3A5.28,5.28,0,0,1,12,7.33,6.82,6.82,0,0,1,16.93,9.79Z" fill="#1991ff"/></svg>