<svg width="24" height="24" viewBox="0 0 24 24" fill="none" xmlns="http://www.w3.org/2000/svg">
<path fill-rule="evenodd" clip-rule="evenodd" d="M9.81856 12.6022L4.17332 5.92669C3.77363 5.45407 4.10958 4.73001 4.72854 4.73001H19.2715C19.8904 4.73001 20.2264 5.45407 19.8267 5.92669L14.1814 12.6022V18.5458C14.1814 19.0863 13.6126 19.4379 13.1291 19.1962L10.2205 17.7419C9.97417 17.6187 9.81856 17.3669 9.81856 17.0915V12.6022ZM17.7042 6.1843H6.29576L11.1009 11.8664C11.2119 11.9977 11.2729 12.164 11.2729 12.336V16.6421L12.7271 17.3692V12.336C12.7271 12.164 12.7881 11.9977 12.8991 11.8664L17.7042 6.1843Z" fill="#1991FF"/>
</svg>
