<svg width="24" height="24" viewBox="0 0 24 24" fill="none" xmlns="http://www.w3.org/2000/svg">
<path fill-rule="evenodd" clip-rule="evenodd" d="M5.4502 14.1818V5.45455C5.4502 5.26166 5.52682 5.07668 5.66321 4.94029C5.8229 4.78059 6.11018 4.58907 6.54373 4.41565C7.20032 4.15302 8.04191 4 9.08656 4C10.1168 4 10.8194 4.20074 12.2658 4.77929C13.5467 5.29165 14.1168 5.45455 14.9047 5.45455C15.7692 5.45455 16.4276 5.33483 16.9074 5.14293C17.1556 5.04362 17.2774 4.96241 17.2996 4.94029C17.7577 4.48213 18.5411 4.80661 18.5411 5.45455V14.1818C18.5411 14.3747 18.4645 14.5597 18.3281 14.6961C18.1684 14.8558 17.8811 15.0473 17.4476 15.2207C16.791 15.4833 15.9494 15.6364 14.9047 15.6364C13.8745 15.6364 13.1719 15.4356 11.7255 14.8571C10.4446 14.3447 9.87451 14.1818 9.08656 14.1818C8.22212 14.1818 7.5637 14.3015 7.08393 14.4934C7.01451 14.5212 6.95497 14.5476 6.90474 14.5716V19.2727C6.90474 19.6744 6.57913 20 6.17747 20C5.77581 20 5.4502 19.6744 5.4502 19.2727V14.1818ZM12.2658 13.5066C10.8194 12.928 10.1168 12.7273 9.08656 12.7273C8.22434 12.7273 7.50045 12.8315 6.90474 13.0156V5.84433C6.95497 5.82029 7.01451 5.79393 7.08393 5.76616C7.5637 5.57426 8.22212 5.45455 9.08656 5.45455C9.87451 5.45455 10.4446 5.61744 11.7255 6.1298C13.1719 6.70835 13.8745 6.90909 14.9047 6.90909C15.767 6.90909 16.4908 6.80485 17.0866 6.62077V13.792C17.0363 13.8161 16.9768 13.8424 16.9074 13.8702C16.4276 14.0621 15.7692 14.1818 14.9047 14.1818C14.1168 14.1818 13.5467 14.0189 12.2658 13.5066Z" fill="#1991FF"/>
</svg>
