<svg width="24" height="24" viewBox="0 0 24 24" fill="none" xmlns="http://www.w3.org/2000/svg">
<path fill-rule="evenodd" clip-rule="evenodd" d="M9.42896 6.18456H6.18182C5.78016 6.18456 5.45455 6.51017 5.45455 6.91183V17.0936C5.45455 17.4953 5.78016 17.8209 6.18182 17.8209H17.8182C18.2198 17.8209 18.5455 17.4953 18.5455 17.0936V9.09365C18.5455 8.69199 18.2198 8.36637 17.8182 8.36637H11.2727C11.0296 8.36637 10.8025 8.24485 10.6676 8.04252L9.42896 6.18456ZM11.662 6.91183H17.8182C19.0232 6.91183 20 7.88866 20 9.09365V17.0936C20 18.2986 19.0232 19.2755 17.8182 19.2755H6.18182C4.97683 19.2755 4 18.2986 4 17.0936V6.91183C4 5.70684 4.97683 4.73001 6.18182 4.73001H9.81818C10.0613 4.73001 10.2884 4.85154 10.4233 5.05387L11.662 6.91183Z" fill="#1991FF"/>
</svg>
