<svg width="24" height="24" viewBox="0 0 24 24" fill="none" xmlns="http://www.w3.org/2000/svg">
<path fill-rule="evenodd" clip-rule="evenodd" d="M5.6 9.6V5.6H9.6V9.6H5.6ZM10.4 4H4.8C4.35817 4 4 4.35817 4 4.8V10.4C4 10.8418 4.35817 11.2 4.8 11.2H10.4C10.8418 11.2 11.2 10.8418 11.2 10.4V4.8C11.2 4.35817 10.8418 4 10.4 4ZM14.4 9.6V5.6H18.4V9.6H14.4ZM19.1998 4H13.5998C13.158 4 12.7998 4.35817 12.7998 4.8V10.4C12.7998 10.8418 13.158 11.2 13.5998 11.2H19.1998C19.6416 11.2 19.9998 10.8418 19.9998 10.4V4.8C19.9998 4.35817 19.6416 4 19.1998 4ZM14.4 14.4V18.4H18.4V14.4H14.4ZM13.5998 12.8H19.1998C19.6416 12.8 19.9998 13.1582 19.9998 13.6V19.2C19.9998 19.6418 19.6416 20 19.1998 20H13.5998C13.158 20 12.7998 19.6418 12.7998 19.2V13.6C12.7998 13.1582 13.158 12.8 13.5998 12.8ZM5.6 18.4V14.4H9.6V18.4H5.6ZM10.4 12.8H4.8C4.35817 12.8 4 13.1582 4 13.6V19.2C4 19.6418 4.35817 20 4.8 20H10.4C10.8418 20 11.2 19.6418 11.2 19.2V13.6C11.2 13.1582 10.8418 12.8 10.4 12.8Z" fill="#1991FF"/>
</svg>
