<svg width="24" height="24" viewBox="0 0 24 24" fill="none" xmlns="http://www.w3.org/2000/svg">
<path fill-rule="evenodd" clip-rule="evenodd" d="M5.06667 6.66333C4.47756 6.66333 4 6.18577 4 5.59667C4 5.00756 4.47756 4.53 5.06667 4.53H18.9333C19.5224 4.53 20 5.00756 20 5.59667C20 6.18577 19.5224 6.66333 18.9333 6.66333H5.06667ZM5.06667 13.0633C4.47756 13.0633 4 12.5858 4 11.9967C4 11.4076 4.47756 10.93 5.06667 10.93H18.9333C19.5224 10.93 20 11.4076 20 11.9967C20 12.5858 19.5224 13.0633 18.9333 13.0633H5.06667ZM4 18.3967C4 18.9858 4.47756 19.4633 5.06667 19.4633H18.9333C19.5224 19.4633 20 18.9858 20 18.3967C20 17.8076 19.5224 17.33 18.9333 17.33H5.06667C4.47756 17.33 4 17.8076 4 18.3967Z" fill="#1991FF"/>
</svg>
