<svg width="24" height="24" viewBox="0 0 24 24" fill="none" xmlns="http://www.w3.org/2000/svg">
<path fill-rule="evenodd" clip-rule="evenodd" d="M12 4.5C7.85786 4.5 4.5 7.85786 4.5 12V13.5V16.5V17.25C4.5 18.4926 5.50736 19.5 6.75 19.5H7.5C8.74264 19.5 9.75 18.4926 9.75 17.25V15C9.75 13.7574 8.74264 12.75 7.5 12.75H6V12C6 8.68629 8.68629 6 12 6C15.3137 6 18 8.68629 18 12V12.75H16.5C15.2574 12.75 14.25 13.7574 14.25 15V17.25C14.25 18.4926 15.2574 19.5 16.5 19.5H17.25C18.4926 19.5 19.5 18.4926 19.5 17.25V16.5V13.5V12C19.5 7.85786 16.1421 4.5 12 4.5ZM18 14.25H16.5C16.0858 14.25 15.75 14.5858 15.75 15V17.25C15.75 17.6642 16.0858 18 16.5 18H17.25C17.6642 18 18 17.6642 18 17.25V16.5V14.25ZM6 14.25V16.5V17.25C6 17.6642 6.33579 18 6.75 18H7.5C7.91421 18 8.25 17.6642 8.25 17.25V15C8.25 14.5858 7.91421 14.25 7.5 14.25H6Z" fill="#1991FF"/>
</svg>
