<svg width="24" height="24" viewBox="0 0 24 24" fill="none" xmlns="http://www.w3.org/2000/svg">
<path fill-rule="evenodd" clip-rule="evenodd" d="M20 9.48214C20 10.6868 19.5213 11.8421 18.6694 12.6937L12.4938 18.8692C12.221 19.1421 11.7786 19.1421 11.5058 18.8692L5.33025 12.6937C3.55658 10.92 3.55658 8.0443 5.33025 6.27063C7.10392 4.49696 9.97961 4.49696 11.7533 6.27063L11.9998 6.51716L12.2462 6.27075C13.0979 5.41871 14.2532 4.94 15.4579 4.94C16.6625 4.94 17.8177 5.41866 18.6694 6.27063C19.5213 7.12226 20 8.27752 20 9.48214ZM11.9999 17.3873L16.941 12.4462L17.6816 11.7056C18.2715 11.116 18.6029 10.3162 18.6029 9.48215C18.6029 8.64814 18.2715 7.84831 17.6816 7.25871C17.0918 6.66861 16.2919 6.33719 15.4579 6.33719C14.6239 6.33719 13.8241 6.66861 13.2344 7.25859L12.4939 7.9991C12.2211 8.27192 11.7787 8.27192 11.5059 7.9991L10.7654 7.25859C9.53736 6.03056 7.54633 6.03056 6.31829 7.25859C5.09026 8.48663 5.09026 10.4777 6.31829 11.7057L11.9999 17.3873Z" fill="#1991FF"/>
</svg>
