<svg width="24" height="24" viewBox="0 0 24 24" fill="none" xmlns="http://www.w3.org/2000/svg">
<path fill-rule="evenodd" clip-rule="evenodd" d="M6.45455 17.8182V10.1739L12.2727 5.64867L18.0909 10.1739V17.8182C18.0909 18.2199 17.7653 18.5455 17.3636 18.5455H15.182V12C15.182 11.5983 14.8563 11.2727 14.4547 11.2727H10.091C9.68938 11.2727 9.36377 11.5983 9.36377 12V18.5455H7.18182C6.78016 18.5455 6.45455 18.2199 6.45455 17.8182ZM10.8183 18.5455H13.7274V12.7273H10.8183V18.5455ZM11.8262 4.1532L5.28077 9.24411C5.10362 9.38189 5 9.59375 5 9.81818V17.8182C5 19.0232 5.97683 20 7.18182 20H17.3636C18.5686 20 19.5455 19.0232 19.5455 17.8182V9.81818C19.5455 9.59375 19.4418 9.38189 19.2647 9.24411L12.7192 4.1532C12.4566 3.94893 12.0889 3.94893 11.8262 4.1532Z" fill="#1991FF"/>
</svg>
