<svg width="24" height="24" viewBox="0 0 24 24" fill="none" xmlns="http://www.w3.org/2000/svg">
<path fill-rule="evenodd" clip-rule="evenodd" d="M6.4 5.6C5.95817 5.6 5.6 5.95817 5.6 6.4V17.6C5.6 17.943 5.81592 18.2357 6.11927 18.3494L14.6343 9.83431C14.9467 9.52189 15.4533 9.52189 15.7657 9.83431L18.4 12.4686V6.4C18.4 5.95817 18.0418 5.6 17.6 5.6H6.4ZM18.4 14.7314L15.2 11.5314L8.33137 18.4H17.6C18.0418 18.4 18.4 18.0418 18.4 17.6V14.7314ZM6.4 4H17.6C18.9255 4 20 5.07452 20 6.4V17.6C20 18.9255 18.9255 20 17.6 20H6.4C5.07452 20 4 18.9255 4 17.6V6.4C4 5.07452 5.07452 4 6.4 4ZM9.2 11.2C8.09543 11.2 7.2 10.3046 7.2 9.2C7.2 8.09543 8.09543 7.2 9.2 7.2C10.3046 7.2 11.2 8.09543 11.2 9.2C11.2 10.3046 10.3046 11.2 9.2 11.2ZM9.1998 9.60005C9.42072 9.60005 9.5998 9.42096 9.5998 9.20005C9.5998 8.97914 9.42072 8.80005 9.1998 8.80005C8.97889 8.80005 8.7998 8.97914 8.7998 9.20005C8.7998 9.42096 8.97889 9.60005 9.1998 9.60005Z" fill="#1991FF"/>
</svg>
