<svg width="24" height="24" viewBox="0 0 24 24" fill="none" xmlns="http://www.w3.org/2000/svg">
<path fill-rule="evenodd" clip-rule="evenodd" d="M15.4177 5H8.58182C7.71871 4.99939 6.93605 5.52414 6.58613 6.33833L4.06907 12.1806C4.02477 12.2775 4 12.3858 4 12.5V16.25C4 17.4926 4.97683 18.5 6.18182 18.5H17.8182C19.0232 18.5 20 17.4926 20 16.25V12.5C20 12.3858 19.9752 12.2775 19.9309 12.1806L17.4137 6.33798C17.0642 5.52432 16.2814 4.99939 15.4177 5ZM18.1538 11.75L16.0841 6.94625C15.9675 6.67478 15.7066 6.4998 15.4182 6.5L8.58132 6.5C8.2934 6.4998 8.03247 6.67478 7.91587 6.94625L5.84623 11.75H9.09091C9.33407 11.75 9.56115 11.8753 9.69604 12.084L10.9347 14H13.0653L14.304 12.084C14.4388 11.8753 14.6659 11.75 14.9091 11.75H18.1538ZM5.45455 13.25V16.25C5.45455 16.6642 5.78016 17 6.18182 17H17.8182C18.2198 17 18.5455 16.6642 18.5455 16.25V13.25H15.2983L14.0597 15.166C13.9248 15.3747 13.6977 15.5 13.4545 15.5H10.5455C10.3023 15.5 10.0752 15.3747 9.94033 15.166L8.70168 13.25H5.45455Z" fill="#1991FF"/>
</svg>
