<svg width="24" height="24" viewBox="0 0 24 24" fill="none" xmlns="http://www.w3.org/2000/svg">
<path fill-rule="evenodd" clip-rule="evenodd" d="M15.8041 5.52764C14.6382 4.84254 13.3702 4.5 12 4.5C10.6418 4.5 9.37981 4.84254 8.21394 5.52764C7.08413 6.18871 6.18871 7.08413 5.52764 8.21394C4.84254 9.37981 4.5 10.6418 4.5 12C4.5 13.3582 4.84254 14.6202 5.52764 15.7861C6.17669 16.9159 7.0661 17.8113 8.19591 18.4724C9.36178 19.1575 10.6298 19.5 12 19.5C13.3702 19.5 14.6382 19.1575 15.8041 18.4724C16.9339 17.8233 17.8233 16.9339 18.4724 15.8041C19.1575 14.6382 19.5 13.3702 19.5 12C19.5 10.6298 19.1575 9.36178 18.4724 8.19591C17.8233 7.0661 16.9339 6.17669 15.8041 5.52764ZM12 9C12.4142 9 12.75 8.66421 12.75 8.25C12.75 7.83579 12.4142 7.5 12 7.5C11.5858 7.5 11.25 7.83579 11.25 8.25C11.25 8.66421 11.5858 9 12 9ZM12 17.25C12.4142 17.25 12.75 16.9142 12.75 16.5V11.25C12.75 10.8358 12.4142 10.5 12 10.5C11.5858 10.5 11.25 10.8358 11.25 11.25V16.5C11.25 16.9142 11.5858 17.25 12 17.25Z" fill="#1991FF"/>
</svg>
