<svg width="24" height="24" viewBox="0 0 24 24" fill="none" xmlns="http://www.w3.org/2000/svg">
<path fill-rule="evenodd" clip-rule="evenodd" d="M16.0577 5.09615C14.8141 4.36538 13.4615 4 12 4C10.5513 4 9.20513 4.36538 7.96154 5.09615C6.7564 5.80129 5.80129 6.7564 5.09615 7.96154C4.36538 9.20513 4 10.5513 4 12C4 13.4487 4.36538 14.7949 5.09615 16.0385C5.78847 17.2436 6.73717 18.1987 7.94231 18.9038C9.1859 19.6346 10.5385 20 12 20C13.4615 20 14.8141 19.6346 16.0577 18.9038C17.2628 18.2115 18.2115 17.2628 18.9038 16.0577C19.6346 14.8141 20 13.4615 20 12C20 10.5385 19.6346 9.1859 18.9038 7.94231C18.2115 6.73717 17.2628 5.78847 16.0577 5.09615ZM15.2193 17.5186C14.2228 18.1062 13.1498 18.4 12.0001 18.4C10.8504 18.4 9.77735 18.1062 8.78094 17.5186C7.81007 16.9565 7.04361 16.19 6.48153 15.2192C5.89391 14.2228 5.6001 13.1497 5.6001 12C5.6001 10.8503 5.89391 9.77726 6.48153 8.78084C7.04361 7.80998 7.81007 7.04352 8.78094 6.48144C9.77735 5.89382 10.8504 5.60001 12.0001 5.60001C13.1498 5.60001 14.2228 5.89382 15.2193 6.48144C16.1901 7.04352 16.9566 7.80998 17.5187 8.78084C18.1063 9.77726 18.4001 10.8503 18.4001 12C18.4001 13.1497 18.1063 14.2228 17.5187 15.2192C16.9566 16.19 16.1901 16.9565 15.2193 17.5186ZM11.9679 9.5355C11.5439 9.5355 11.2002 9.19177 11.2002 8.76775C11.2002 8.34373 11.5439 8 11.9679 8H11.994C12.4181 8 12.7618 8.34373 12.7618 8.76775C12.7618 9.19177 12.4181 9.5355 11.994 9.5355H11.9679ZM11.213 16.0128C11.213 16.4476 11.5654 16.8 12.0002 16.8C12.435 16.8 12.7874 16.4476 12.7874 16.0128V11.9872C12.7874 11.5524 12.435 11.2 12.0002 11.2C11.5654 11.2 11.213 11.5524 11.213 11.9872V16.0128Z" fill="#1991FF"/>
</svg>
