<svg width="24" height="24" viewBox="0 0 24 24" fill="none" xmlns="http://www.w3.org/2000/svg">
<path fill-rule="evenodd" clip-rule="evenodd" d="M4.72727 5.45H7.63636C8.03803 5.45 8.36364 5.74305 8.36364 6.10454V17.8864C8.36364 18.2479 8.03803 18.5409 7.63636 18.5409H4.72727C4.32561 18.5409 4 18.2479 4 17.8864V6.10454C4 5.74305 4.32561 5.45 4.72727 5.45ZM10.5456 5.45H13.4547C13.8564 5.45 14.182 5.7539 14.182 6.12878V14.953C14.182 15.3279 13.8564 15.6318 13.4547 15.6318H10.5456C10.144 15.6318 9.81836 15.3279 9.81836 14.953V6.12878C9.81836 5.7539 10.144 5.45 10.5456 5.45ZM19.2726 5.45H16.3635C15.9618 5.45 15.6362 5.74305 15.6362 6.10454V11.3409C15.6362 11.7024 15.9618 11.9955 16.3635 11.9955H19.2726C19.6743 11.9955 19.9999 11.7024 19.9999 11.3409V6.10454C19.9999 5.74305 19.6743 5.45 19.2726 5.45Z" fill="#1991FF"/>
</svg>
