<svg width="24" height="24" viewBox="0 0 24 24" fill="none" xmlns="http://www.w3.org/2000/svg">
<path fill-rule="evenodd" clip-rule="evenodd" d="M6.40018 5.59995C5.95836 5.59995 5.60018 5.95813 5.60018 6.39995V8.80005H9.5998H18.4002V6.39995C18.4002 5.95813 18.042 5.59995 17.6002 5.59995H6.40018ZM8.7998 10.4H5.60018V17.6C5.60018 18.0418 5.95836 18.4 6.40018 18.4H8.7998V10.4ZM10.3998 18.4V10.4H18.4002V17.6C18.4002 18.0418 18.042 18.4 17.6002 18.4H10.3998ZM9.60881 20H17.6C18.9255 20 20 18.9255 20 17.6V9.60005V6.4C20 5.07452 18.9255 4 17.6 4H6.4C5.07452 4 4 5.07452 4 6.4V9.60005V17.6C4 18.9255 5.07452 20 6.4 20H9.5908C9.5938 20 9.5968 20 9.5998 20C9.60281 20 9.60581 20 9.60881 20Z" fill="#1991FF"/>
</svg>
