<svg width="24" height="24" viewBox="0 0 24 24" fill="none" xmlns="http://www.w3.org/2000/svg">
<path fill-rule="evenodd" clip-rule="evenodd" d="M18.8163 4H5.18049C4.5292 4 4 4.51674 4 5.15378V18.8456C4 19.4827 4.5292 20 5.18049 20H18.8163C19.469 20 20 19.4827 20 18.8456V5.15378C20 4.51674 19.469 4 18.8163 4ZM7.59987 6.4C8.26198 6.4 8.8 7.00413 8.8 7.74876C8.8 8.49252 8.26198 9.09665 7.59987 9.09665C6.93646 9.09665 6.4 8.49252 6.4 7.74876C6.4 7.00413 6.93646 6.4 7.59987 6.4ZM6.56455 17.6H8.63569V10.1188H6.56455V17.6ZM12.6145 9.79357H10.4V17.6H12.7079V13.7386C12.7079 12.7205 12.8909 11.7335 14.0924 11.7335C15.2774 11.7335 15.2921 12.898 15.2921 13.8034V17.6H17.6V13.3184C17.6 11.2164 17.1685 9.6 14.8306 9.6C13.7076 9.6 12.9543 10.2471 12.6462 10.8611H12.6145V9.79357Z" fill="#1991FF"/>
</svg>
