<svg width="24" height="24" viewBox="0 0 24 24" fill="none" xmlns="http://www.w3.org/2000/svg">
<path fill-rule="evenodd" clip-rule="evenodd" d="M10.0999 12.1395C9.77654 12.3814 9.71049 12.8396 9.95235 13.1629C10.7147 14.1821 11.8822 14.82 13.1518 14.9109C14.4213 15.0018 15.6678 14.5368 16.5676 13.6367L18.7609 11.4434C20.4323 9.71304 20.4085 6.97699 18.7164 5.28486C17.0242 3.59273 14.2882 3.56896 12.5669 5.23142L11.3018 6.48905C11.0155 6.77374 11.0141 7.23667 11.2988 7.52302C11.5835 7.80938 12.0464 7.81073 12.3328 7.52604L13.5903 6.27581C14.7303 5.1749 16.5543 5.19075 17.6824 6.31883C18.8105 7.44692 18.8263 9.27095 17.718 10.4185L15.5335 12.6028C14.9335 13.203 14.1026 13.513 13.2562 13.4524C12.4098 13.3917 11.6315 12.9665 11.1233 12.287C10.8814 11.9637 10.4232 11.8976 10.0999 12.1395ZM13.9002 11.8482C14.2235 11.6063 14.2896 11.1481 14.0477 10.8248C13.2853 9.80557 12.1179 9.16773 10.8483 9.0768C9.57876 8.98588 8.33231 9.45084 7.43247 10.351L5.23918 12.5443C3.56781 14.2746 3.59158 17.0107 5.28371 18.7028C6.97583 20.395 9.71189 20.4187 11.4332 18.7563L12.6925 17.4971C12.978 17.2116 12.978 16.7487 12.6925 16.4632C12.4069 16.1776 11.944 16.1776 11.6585 16.4632L10.4083 17.7134C9.2698 18.8128 7.44576 18.7969 6.31768 17.6689C5.18959 16.5408 5.17374 14.7167 6.28205 13.5692L8.46653 11.3849C9.06652 10.7847 9.89749 10.4747 10.7439 10.5353C11.5902 10.5959 12.3685 11.0212 12.8768 11.7006C13.1187 12.024 13.5768 12.09 13.9002 11.8482Z" fill="#1991FF"/>
</svg>
