<svg width="24" height="24" viewBox="0 0 24 24" fill="none" xmlns="http://www.w3.org/2000/svg">
<path fill-rule="evenodd" clip-rule="evenodd" d="M6.90914 18.5409L17.091 18.5409L17.091 17.0864L6.90914 17.0864L6.90914 18.5409ZM5.45459 19.2682L5.45459 16.3591C5.45459 15.9574 5.7802 15.6318 6.18186 15.6318L17.8182 15.6318C18.2199 15.6318 18.5455 15.9574 18.5455 16.3591L18.5455 19.2682C18.5455 19.6698 18.2199 19.9955 17.8182 19.9955L6.18186 19.9955C5.7802 19.9955 5.45459 19.6698 5.45459 19.2682ZM6.90914 12.7229L17.091 12.7229L17.091 11.2684L6.90914 11.2684L6.90914 12.7229ZM5.45459 13.45L5.45459 10.5409C5.45459 10.1393 5.7802 9.81364 6.18186 9.81364L17.8182 9.81364C18.2199 9.81364 18.5455 10.1393 18.5455 10.5409L18.5455 13.45C18.5455 13.8517 18.2199 14.1773 17.8182 14.1773L6.18186 14.1773C5.7802 14.1773 5.45459 13.8517 5.45459 13.45ZM17.091 6.90441L6.90914 6.90441L6.90914 5.44986L17.091 5.44986L17.091 6.90441ZM5.45459 4.72272L5.45459 7.63181C5.45459 8.03347 5.7802 8.35909 6.18186 8.35909L17.8182 8.35909C18.2199 8.35909 18.5455 8.03347 18.5455 7.63181L18.5455 4.72272C18.5455 4.32106 18.2199 3.99545 17.8182 3.99545L6.18186 3.99545C5.7802 3.99545 5.45459 4.32106 5.45459 4.72272Z" fill="#1991FF"/>
</svg>
