<svg xmlns="http://www.w3.org/2000/svg" width="24" height="24" viewBox="0 0 24 24"><title>location</title><path d="M12.19,18.11a18.71,18.71,0,0,0,2-1.82C16,14.42,17,12.5,17,10.67a5.34,5.34,0,1,0-10.67,0c0,1.83,1,3.75,2.82,5.62a18.71,18.71,0,0,0,2,1.82l.53.41Zm3-.9A20.31,20.31,0,0,1,13,19.16c-.26.2-.49.38-.71.53l-.27.2a.66.66,0,0,1-.74,0l-.28-.2-.71-.53a21.36,21.36,0,0,1-2.13-1.95C6.2,15.12,5,12.91,5,10.67a6.67,6.67,0,1,1,13.33,0C18.33,12.91,17.13,15.12,15.15,17.21Zm-3.48-3.88a2.67,2.67,0,1,1,2.66-2.66A2.66,2.66,0,0,1,11.67,13.33Zm0-1.33a1.34,1.34,0,1,0-1.34-1.33A1.34,1.34,0,0,0,11.67,12Z" fill="#1991ff"/></svg>