<svg width="24" height="24" viewBox="0 0 24 24" fill="none" xmlns="http://www.w3.org/2000/svg">
<path fill-rule="evenodd" clip-rule="evenodd" d="M7.63916 10.5455V8.36364C7.63916 5.95367 9.59283 4 12.0028 4C14.4128 4 16.3664 5.95367 16.3664 8.36364V10.5455H17.0936C18.2986 10.5455 19.2754 11.5223 19.2754 12.7273V17.8182C19.2754 19.0232 18.2986 20 17.0936 20H6.9118C5.70681 20 4.72998 19.0232 4.72998 17.8182V12.7273C4.72998 11.5223 5.70681 10.5455 6.9118 10.5455H7.63916ZM14.9119 10.5455V8.36364C14.9119 6.75699 13.6094 5.45455 12.0028 5.45455C10.3962 5.45455 9.09371 6.75699 9.09371 8.36364V10.5455H14.9119ZM6.18453 12.7273C6.18453 12.3257 6.51014 12.0001 6.9118 12.0001H17.0936C17.4953 12.0001 17.8209 12.3257 17.8209 12.7273V17.8182C17.8209 18.2199 17.4953 18.5455 17.0936 18.5455H6.9118C6.51014 18.5455 6.18453 18.2199 6.18453 17.8182V12.7273Z" fill="#1991FF"/>
</svg>
