<svg width="24" height="24" viewBox="0 0 24 24" fill="none" xmlns="http://www.w3.org/2000/svg">
<path fill-rule="evenodd" clip-rule="evenodd" d="M13.7273 20C13.3256 20 13 19.6744 13 19.2727C13 18.8711 13.3256 18.5455 13.7273 18.5455H17.3636C17.7653 18.5455 18.0909 18.2198 18.0909 17.8182V6.18182C18.0909 5.78016 17.7653 5.45455 17.3636 5.45455H13.7273C13.3256 5.45455 13 5.12893 13 4.72727C13 4.32561 13.3256 4 13.7273 4H17.3636C18.5686 4 19.5455 4.97683 19.5455 6.18182V17.8182C19.5455 19.0232 18.5686 20 17.3636 20H13.7273ZM12.6989 11.2727L11.0314 9.60518C10.7474 9.32116 10.7474 8.86068 11.0314 8.57666C11.3154 8.29264 11.7759 8.29264 12.0599 8.57666L14.969 11.4858C15.253 11.7698 15.253 12.2303 14.969 12.5143L12.0599 15.4234C11.7759 15.7074 11.3154 15.7074 11.0314 15.4234C10.7474 15.1393 10.7474 14.6789 11.0314 14.3948L12.699 12.7273H5.72727C5.32561 12.7273 5 12.4016 5 12C5 11.5983 5.32561 11.2727 5.72727 11.2727H12.6989Z" fill="#1991FF"/>
</svg>
