<svg width="24" height="24" viewBox="0 0 24 24" fill="none" xmlns="http://www.w3.org/2000/svg">
<path fill-rule="evenodd" clip-rule="evenodd" d="M10.5384 18.5455C10.9401 18.5455 11.2657 18.8711 11.2657 19.2727C11.2657 19.6744 10.9401 20 10.5384 20H6.90203C5.69705 20 4.72021 19.0232 4.72021 17.8182V6.18182C4.72021 4.97683 5.69705 4 6.90203 4H10.5384C10.9401 4 11.2657 4.32561 11.2657 4.72727C11.2657 5.12893 10.9401 5.45455 10.5384 5.45455H6.90203C6.50037 5.45455 6.17476 5.78016 6.17476 6.18182V17.8182C6.17476 18.2198 6.50037 18.5455 6.90203 18.5455H10.5384ZM16.7824 11.2727L15.1149 9.60518C14.8309 9.32116 14.8309 8.86068 15.1149 8.57666C15.3989 8.29264 15.8594 8.29264 16.1434 8.57666L19.0399 11.4732C19.1791 11.6056 19.2658 11.7927 19.2658 12C19.2658 12.2073 19.1791 12.3943 19.04 12.5267L16.1434 15.4234C15.8594 15.7074 15.3989 15.7074 15.1149 15.4234C14.8309 15.1393 14.8309 14.6789 15.1149 14.3948L16.7824 12.7273H9.81126C9.4096 12.7273 9.08398 12.4017 9.08398 12C9.08398 11.5983 9.4096 11.2727 9.81126 11.2727H16.7824Z" fill="#1991FF"/>
</svg>
