<svg width="24" height="24" viewBox="0 0 24 24" fill="none" xmlns="http://www.w3.org/2000/svg">
<path fill-rule="evenodd" clip-rule="evenodd" d="M9.35431 16.7601L4.99743 19.2498C4.55299 19.5038 4 19.1829 4 18.671V8.0043C4 7.76506 4.12819 7.54417 4.33591 7.42547L8.98874 4.76671C9.08926 4.70594 9.20713 4.67096 9.33317 4.67096C9.44387 4.67096 9.54828 4.69794 9.64016 4.74569L14.6457 7.24846L19.0026 4.75881C19.447 4.50484 20 4.82575 20 5.33763V16.0043C20 16.2435 19.8718 16.4644 19.6641 16.5831L15.0081 19.2437C14.9082 19.3034 14.7914 19.3376 14.6667 19.3376C14.5545 19.3376 14.4488 19.3099 14.3561 19.261L9.35431 16.7601ZM15.3333 17.5222L18.6667 15.6174V6.48643L15.3333 8.39119V17.5222ZM14 8.41633V17.5923L9.99984 15.5922V6.41625L14 8.41633ZM5.33333 8.39119L8.6665 6.48652V15.6175L5.33333 17.5222V8.39119Z" fill="#1991FF"/>
</svg>
