<svg width="24" height="24" viewBox="0 0 24 24" fill="none" xmlns="http://www.w3.org/2000/svg">
<path fill-rule="evenodd" clip-rule="evenodd" d="M5.6 8.8C5.6 9.24183 5.24183 9.6 4.8 9.6C4.35817 9.6 4 9.24183 4 8.8V6.4C4 5.07452 5.07452 4 6.4 4H8.8C9.24183 4 9.6 4.35817 9.6 4.8C9.6 5.24183 9.24183 5.6 8.8 5.6H6.4C5.95817 5.6 5.6 5.95817 5.6 6.4V8.8ZM15.2 5.6C14.7582 5.6 14.4 5.24183 14.4 4.8C14.4 4.35817 14.7582 4 15.2 4H17.6C18.9255 4 20 5.07452 20 6.4V8.8C20 9.24183 19.6418 9.6 19.2 9.6C18.7582 9.6 18.4 9.24183 18.4 8.8V6.4C18.4 5.95817 18.0418 5.6 17.6 5.6H15.2ZM18.4 15.2C18.4 14.7582 18.7582 14.4 19.2 14.4C19.6418 14.4 20 14.7582 20 15.2V17.6C20 18.9255 18.9255 20 17.6 20H15.2C14.7582 20 14.4 19.6418 14.4 19.2C14.4 18.7582 14.7582 18.4 15.2 18.4H17.6C18.0418 18.4 18.4 18.0418 18.4 17.6V15.2ZM8.8 18.4C9.24183 18.4 9.6 18.7582 9.6 19.2C9.6 19.6418 9.24183 20 8.8 20H6.4C5.07452 20 4 18.9255 4 17.6V15.2C4 14.7582 4.35817 14.4 4.8 14.4C5.24183 14.4 5.6 14.7582 5.6 15.2V17.6C5.6 18.0418 5.95817 18.4 6.4 18.4H8.8Z" fill="#1991FF"/>
</svg>
