<svg width="24" height="24" viewBox="0 0 24 24" fill="none" xmlns="http://www.w3.org/2000/svg">
<path fill-rule="evenodd" clip-rule="evenodd" d="M8 4.8C8 4.35817 8.35817 4 8.8 4C9.24183 4 9.6 4.35817 9.6 4.8V7.2C9.6 8.52548 8.52548 9.6 7.2 9.6H4.8C4.35817 9.6 4 9.24183 4 8.8C4 8.35817 4.35817 8 4.8 8H7.2C7.64183 8 8 7.64183 8 7.2V4.8ZM19.2 8C19.6418 8 20 8.35817 20 8.8C20 9.24183 19.6418 9.6 19.2 9.6H16.8C15.4745 9.6 14.4 8.52548 14.4 7.2V4.8C14.4 4.35817 14.7582 4 15.2 4C15.6418 4 16 4.35817 16 4.8V7.2C16 7.64183 16.3582 8 16.8 8H19.2ZM16 19.2C16 19.6418 15.6418 20 15.2 20C14.7582 20 14.4 19.6418 14.4 19.2V16.8C14.4 15.4745 15.4745 14.4 16.8 14.4H19.2C19.6418 14.4 20 14.7582 20 15.2C20 15.6418 19.6418 16 19.2 16H16.8C16.3582 16 16 16.3582 16 16.8V19.2ZM4.8 16C4.35817 16 4 15.6418 4 15.2C4 14.7582 4.35817 14.4 4.8 14.4H7.2C8.52548 14.4 9.6 15.4745 9.6 16.8V19.2C9.6 19.6418 9.24183 20 8.8 20C8.35817 20 8 19.6418 8 19.2V16.8C8 16.3582 7.64183 16 7.2 16H4.8Z" fill="#1991FF"/>
</svg>
