<svg width="24" height="24" viewBox="0 0 24 24" fill="none" xmlns="http://www.w3.org/2000/svg">
<path fill-rule="evenodd" clip-rule="evenodd" d="M5.932 5.9546C5.53034 5.9546 5.20473 6.28021 5.20473 6.68187V13.9546C5.20473 14.3563 5.53034 14.6819 5.932 14.6819H11.7342C11.7395 14.6818 11.7449 14.6817 11.7502 14.6817C11.7556 14.6817 11.7609 14.6818 11.7662 14.6819H17.5684C17.97 14.6819 18.2956 14.3563 18.2956 13.9546V6.68187C18.2956 6.28021 17.97 5.9546 17.5684 5.9546H5.932ZM12.4775 16.1364H17.5682C18.7732 16.1364 19.75 15.1595 19.75 13.9545V6.68182C19.75 5.47683 18.7732 4.5 17.5682 4.5H5.93182C4.72683 4.5 3.75 5.47683 3.75 6.68182V13.9545C3.75 15.1595 4.72683 16.1364 5.93182 16.1364H11.0229V17.5909H8.84104C8.43938 17.5909 8.11377 17.9165 8.11377 18.3182C8.11377 18.7198 8.43938 19.0454 8.84104 19.0454H14.6592C15.0609 19.0454 15.3865 18.7198 15.3865 18.3182C15.3865 17.9165 15.0609 17.5909 14.6592 17.5909H12.4775V16.1364Z" fill="#1991FF"/>
</svg>
