<svg width="24" height="24" viewBox="0 0 24 24" fill="none" xmlns="http://www.w3.org/2000/svg">
<path fill-rule="evenodd" clip-rule="evenodd" d="M4 12.0018C4 13.2068 4.97683 14.1836 6.18182 14.1836C7.3868 14.1836 8.36364 13.2068 8.36364 12.0018C8.36364 10.7968 7.3868 9.82001 6.18182 9.82001C4.97683 9.82001 4 10.7968 4 12.0018ZM6.90909 12.0018C6.90909 12.4035 6.58348 12.7291 6.18182 12.7291C5.78016 12.7291 5.45455 12.4035 5.45455 12.0018C5.45455 11.6002 5.78016 11.2746 6.18182 11.2746C6.58348 11.2746 6.90909 11.6002 6.90909 12.0018ZM12.0002 14.1836C10.7952 14.1836 9.81836 13.2068 9.81836 12.0018C9.81836 10.7968 10.7952 9.82001 12.0002 9.82001C13.2052 9.82001 14.182 10.7968 14.182 12.0018C14.182 13.2068 13.2052 14.1836 12.0002 14.1836ZM12 12.7291C12.4017 12.7291 12.7273 12.4035 12.7273 12.0018C12.7273 11.6002 12.4017 11.2746 12 11.2746C11.5983 11.2746 11.2727 11.6002 11.2727 12.0018C11.2727 12.4035 11.5983 12.7291 12 12.7291ZM17.818 14.1836C16.6131 14.1836 15.6362 13.2068 15.6362 12.0018C15.6362 10.7968 16.6131 9.82001 17.818 9.82001C19.023 9.82001 19.9999 10.7968 19.9999 12.0018C19.9999 13.2068 19.023 14.1836 17.818 14.1836ZM17.8182 12.7291C18.2198 12.7291 18.5455 12.4035 18.5455 12.0018C18.5455 11.6002 18.2198 11.2746 17.8182 11.2746C17.4165 11.2746 17.0909 11.6002 17.0909 12.0018C17.0909 12.4035 17.4165 12.7291 17.8182 12.7291Z" fill="#1991FF"/>
</svg>
