<svg width="24" height="24" viewBox="0 0 24 24" fill="none" xmlns="http://www.w3.org/2000/svg">
<path fill-rule="evenodd" clip-rule="evenodd" d="M11.9998 4.00183C10.7948 4.00183 9.818 4.97866 9.818 6.18365C9.818 7.38863 10.7948 8.36547 11.9998 8.36547C13.2048 8.36547 14.1816 7.38863 14.1816 6.18365C14.1816 4.97866 13.2048 4.00183 11.9998 4.00183ZM11.9998 6.91092C11.5982 6.91092 11.2725 6.58531 11.2725 6.18365C11.2725 5.78199 11.5982 5.45638 11.9998 5.45638C12.4015 5.45638 12.7271 5.78199 12.7271 6.18365C12.7271 6.58531 12.4015 6.91092 11.9998 6.91092ZM9.818 12.0018C9.818 10.7968 10.7948 9.82001 11.9998 9.82001C13.2048 9.82001 14.1816 10.7968 14.1816 12.0018C14.1816 13.2068 13.2048 14.1836 11.9998 14.1836C10.7948 14.1836 9.818 13.2068 9.818 12.0018ZM11.2725 12.0016C11.2725 12.4033 11.5982 12.7289 11.9998 12.7289C12.4015 12.7289 12.7271 12.4033 12.7271 12.0016C12.7271 11.6 12.4015 11.2744 11.9998 11.2744C11.5982 11.2744 11.2725 11.6 11.2725 12.0016ZM9.818 17.82C9.818 16.615 10.7948 15.6382 11.9998 15.6382C13.2048 15.6382 14.1816 16.615 14.1816 17.82C14.1816 19.025 13.2048 20.0018 11.9998 20.0018C10.7948 20.0018 9.818 19.025 9.818 17.82ZM11.2725 17.8201C11.2725 18.2218 11.5982 18.5474 11.9998 18.5474C12.4015 18.5474 12.7271 18.2218 12.7271 17.8201C12.7271 17.4185 12.4015 17.0929 11.9998 17.0929C11.5982 17.0929 11.2725 17.4185 11.2725 17.8201Z" fill="#1991FF"/>
</svg>
