<svg width="24" height="24" viewBox="0 0 24 24" fill="none" xmlns="http://www.w3.org/2000/svg">
<path fill-rule="evenodd" clip-rule="evenodd" d="M4 12C4 13.204 4.97602 14.18 6.18 14.18C7.38398 14.18 8.36 13.204 8.36 12C8.36 10.796 7.38398 9.82001 6.18 9.82001C4.97602 9.82001 4 10.796 4 12ZM11.9933 14.18C10.7893 14.18 9.81331 13.204 9.81331 12C9.81331 10.796 10.7893 9.82001 11.9933 9.82001C13.1973 9.82001 14.1733 10.796 14.1733 12C14.1733 13.204 13.1973 14.18 11.9933 14.18ZM17.8066 14.18C16.6026 14.18 15.6266 13.204 15.6266 12C15.6266 10.796 16.6026 9.82001 17.8066 9.82001C19.0106 9.82001 19.9866 10.796 19.9866 12C19.9866 13.204 19.0106 14.18 17.8066 14.18Z" fill="#1991FF"/>
</svg>
