<svg width="24" height="24" viewBox="0 0 24 24" fill="none" xmlns="http://www.w3.org/2000/svg">
<path fill-rule="evenodd" clip-rule="evenodd" d="M11.9998 4.00183C10.7948 4.00183 9.818 4.97866 9.818 6.18365C9.818 7.38863 10.7948 8.36547 11.9998 8.36547C13.2048 8.36547 14.1816 7.38863 14.1816 6.18365C14.1816 4.97866 13.2048 4.00183 11.9998 4.00183ZM9.818 12.0018C9.818 10.7968 10.7948 9.82001 11.9998 9.82001C13.2048 9.82001 14.1816 10.7968 14.1816 12.0018C14.1816 13.2068 13.2048 14.1836 11.9998 14.1836C10.7948 14.1836 9.818 13.2068 9.818 12.0018ZM9.818 17.82C9.818 16.615 10.7948 15.6382 11.9998 15.6382C13.2048 15.6382 14.1816 16.615 14.1816 17.82C14.1816 19.025 13.2048 20.0018 11.9998 20.0018C10.7948 20.0018 9.818 19.025 9.818 17.82Z" fill="#1991FF"/>
</svg>
