<svg width="24" height="24" viewBox="0 0 24 24" fill="none" xmlns="http://www.w3.org/2000/svg">
<path fill-rule="evenodd" clip-rule="evenodd" d="M11.476 4.22268C11.6083 4.0854 11.794 4 11.9997 4C12.0723 4 12.1423 4.01062 12.2084 4.03039C12.3203 4.06377 12.4258 4.12464 12.5142 4.21301L14.696 6.39483C14.98 6.67885 14.98 7.13933 14.696 7.42335C14.412 7.70737 13.9515 7.70737 13.6675 7.42335L12.727 6.48289V11.2727H17.5166L16.5763 10.3324C16.2923 10.0483 16.2923 9.58785 16.5763 9.30383C16.8603 9.01982 17.3208 9.01982 17.6048 9.30383L19.7746 11.4736C19.9135 11.6061 20 11.7929 20 12C20 12.2083 19.9124 12.3962 19.772 12.5288L17.6048 14.696C17.3208 14.98 16.8603 14.98 16.5763 14.696C16.2923 14.412 16.2923 13.9515 16.5763 13.6675L17.5165 12.7273H12.727V17.5171L13.6675 16.5767C13.9515 16.2926 14.412 16.2926 14.696 16.5767C14.98 16.8607 14.98 17.3212 14.696 17.6052L12.5142 19.787C12.4215 19.8796 12.3102 19.942 12.1922 19.9742C12.1498 19.9859 12.1058 19.9937 12.0606 19.9975C12.0328 19.9998 12.0048 20.0005 11.9769 19.9996C11.7804 19.9936 11.6036 19.9096 11.4763 19.7776L9.30383 17.6052C9.01982 17.3212 9.01982 16.8607 9.30383 16.5767C9.58785 16.2926 10.0483 16.2926 10.3324 16.5767L11.2725 17.5168V12.7273H6.48313L7.42335 13.6675C7.70737 13.9515 7.70737 14.412 7.42335 14.696C7.13933 14.98 6.67885 14.98 6.39483 14.696L4.2189 12.5201C4.19655 12.4982 4.17561 12.4749 4.15621 12.4504C4.12203 12.4072 4.09347 12.361 4.0705 12.3127C4.0253 12.218 4 12.1119 4 12C4 11.9969 4.00002 11.9938 4.00006 11.9907C4.00112 11.9059 4.01669 11.8246 4.0444 11.7492C4.07963 11.653 4.13584 11.5628 4.21301 11.4857L6.39483 9.30383C6.67885 9.01982 7.13933 9.01982 7.42335 9.30383C7.70737 9.58785 7.70737 10.0483 7.42335 10.3324L6.483 11.2727H11.2725V6.48324L10.3324 7.42335C10.0483 7.70737 9.58785 7.70737 9.30383 7.42335C9.01982 7.13933 9.01982 6.67885 9.30383 6.39483L11.476 4.22268Z" fill="#1991FF"/>
</svg>
