<svg width="24" height="24" viewBox="0 0 24 24" fill="none" xmlns="http://www.w3.org/2000/svg">
<path fill-rule="evenodd" clip-rule="evenodd" d="M10.5 15.75V7.38535L18 6.13535V13.5H15.75C14.5074 13.5 13.5 14.5074 13.5 15.75C13.5 16.9926 14.5074 18 15.75 18H17.25C18.4926 18 19.5 16.9926 19.5 15.75V14.25V5.25C19.5 4.78655 19.0838 4.43402 18.6267 4.51021L9.6267 6.01021C9.26506 6.07048 9 6.38337 9 6.75V15H6.75C5.50736 15 4.5 16.0074 4.5 17.25C4.5 18.4926 5.50736 19.5 6.75 19.5H8.25C9.49264 19.5 10.5 18.4926 10.5 17.25V15.75ZM6.75 16.5H9V17.25C9 17.6642 8.66421 18 8.25 18H6.75C6.33579 18 6 17.6642 6 17.25C6 16.8358 6.33579 16.5 6.75 16.5ZM15.75 15H18V15.75C18 16.1642 17.6642 16.5 17.25 16.5H15.75C15.3358 16.5 15 16.1642 15 15.75C15 15.3358 15.3358 15 15.75 15Z" fill="#1991FF"/>
</svg>
