<svg xmlns="http://www.w3.org/2000/svg" width="24" height="24" viewBox="0 0 24 24"><title>note-action</title><path d="M17.09,13.93a.73.73,0,0,1,1.46,0v3.89A2.19,2.19,0,0,1,16.36,20H6.18A2.19,2.19,0,0,1,4,17.82V7.64A2.19,2.19,0,0,1,6.18,5.45h3.89a.73.73,0,0,1,0,1.46H6.18a.73.73,0,0,0-.73.73V17.82a.73.73,0,0,0,.73.73H16.36a.73.73,0,0,0,.73-.73Zm2.7-6.81L16.88,4.21a.74.74,0,0,0-1,0L8.58,11.49a.7.7,0,0,0-.22.51v2.91a.73.73,0,0,0,.73.73H12a.7.7,0,0,0,.51-.22l7.28-7.27A.74.74,0,0,0,19.79,7.12ZM11.7,14.18H9.82V12.3l6.54-6.54,1.88,1.88Z" fill="#1991ff"/></svg>