<svg width="24" height="24" viewBox="0 0 24 24" fill="none" xmlns="http://www.w3.org/2000/svg">
<path fill-rule="evenodd" clip-rule="evenodd" d="M12.1787 5.43026C12.3676 5.33639 12.5913 5.33629 12.7817 5.4307L17.7555 7.91758L15.8796 8.85554L10.6038 6.21768L12.1787 5.43026ZM8.71967 5.63926L6.1307 6.93375C5.43898 7.27747 5.00046 7.98463 5.00005 8.75872L5.00005 15.2324C4.99467 16.0032 5.42946 16.7146 6.12202 17.0636L11.5637 19.7844C12.1381 20.0719 12.8146 20.0719 13.3892 19.7843L18.8288 17.0645C19.5205 16.7208 19.959 16.0137 19.9594 15.2396V8.75908C19.959 7.98463 19.5205 7.27747 18.8273 6.933L13.3875 4.21311C12.8157 3.92896 12.1438 3.92896 11.572 4.21311L8.83396 5.58212C8.79427 5.59751 8.75598 5.61662 8.71967 5.63926ZM9.08337 6.97791L14.3591 9.61578L12.4795 10.5556L7.20381 7.91769L9.08337 6.97791ZM16.1693 10.2312L13.1593 11.7362V18.3789L18.2221 15.8475C18.4532 15.7326 18.5994 15.4969 18.5995 15.2392L18.5995 9.01603L16.1992 10.2162C16.1893 10.2214 16.1794 10.2264 16.1693 10.2312ZM6.36002 9.01626L6.36001 15.2372C6.35821 15.4957 6.50314 15.7328 6.73211 15.8482L11.7993 18.3818V11.7359L6.36002 9.01626Z" fill="#1991FF"/>
</svg>
