<svg width="24" height="24" viewBox="0 0 24 24" fill="none" xmlns="http://www.w3.org/2000/svg">
<path fill-rule="evenodd" clip-rule="evenodd" d="M17.9625 11.0446C18.2388 10.7682 18.6869 10.7682 18.9632 11.0446C19.2396 11.3209 19.2396 11.769 18.9632 12.0453L12.4601 18.5485C10.5247 20.4838 7.38688 20.4838 5.45152 18.5485C3.51616 16.6131 3.51616 13.4753 5.45152 11.5399L11.9547 5.03677C13.337 3.65441 15.5783 3.65441 16.9606 5.03677C18.343 6.41912 18.343 8.66036 16.9604 10.043L10.4504 16.5459C9.62104 17.3752 8.2764 17.3752 7.44705 16.5459C6.6177 15.7165 6.6177 14.3719 7.44734 13.5422L13.4552 7.5415C13.7317 7.26531 14.1797 7.26557 14.4559 7.54209C14.7321 7.8186 14.7318 8.26665 14.4553 8.54283L8.44779 14.5433C8.17114 14.8199 8.17114 15.2685 8.44779 15.5451C8.72445 15.8218 9.173 15.8218 9.44992 15.5449L15.9599 9.04197C16.7895 8.21232 16.7895 6.86717 15.9599 6.03751C15.1302 5.20785 13.7851 5.20785 12.9554 6.03751L6.45227 12.5407C5.0696 13.9233 5.0696 16.1651 6.45227 17.5477C7.83493 18.9304 10.0767 18.9304 11.4593 17.5477L17.9625 11.0446Z" fill="#1991FF"/>
</svg>
