<svg width="24" height="24" viewBox="0 0 24 24" fill="none" xmlns="http://www.w3.org/2000/svg">
<path fill-rule="evenodd" clip-rule="evenodd" d="M10.2242 4H6.66867C6.17775 4 5.77979 4.39797 5.77979 4.88889V19.1111C5.77979 19.602 6.17775 20 6.66867 20H10.2242C10.7151 20 11.1131 19.602 11.1131 19.1111V4.88889C11.1131 4.39797 10.7151 4 10.2242 4ZM17.3356 4H13.78C13.2891 4 12.8911 4.39797 12.8911 4.88889V19.1111C12.8911 19.602 13.2891 20 13.78 20H17.3356C17.8265 20 18.2244 19.602 18.2244 19.1111V4.88889C18.2244 4.39797 17.8265 4 17.3356 4Z" fill="#1991FF"/>
</svg>
