<svg width="24" height="24" viewBox="0 0 24 24" fill="none" xmlns="http://www.w3.org/2000/svg">
<path fill-rule="evenodd" clip-rule="evenodd" d="M5.33333 8C5.33333 7.63181 5.63181 7.33333 6 7.33333H18C18.3682 7.33333 18.6667 7.63181 18.6667 8V10H5.33333V8ZM5.33333 11.3333H18.6667V16C18.6667 16.3682 18.3682 16.6667 18 16.6667H6C5.63181 16.6667 5.33333 16.3682 5.33333 16V11.3333ZM20 10.6667V8C20 6.89543 19.1046 6 18 6H6C4.89543 6 4 6.89543 4 8V10.6667V16C4 17.1046 4.89543 18 6 18H18C19.1046 18 20 17.1046 20 16V10.6667Z" fill="#1991FF"/>
</svg>
