<svg width="24" height="24" viewBox="0 0 24 24" fill="none" xmlns="http://www.w3.org/2000/svg">
<path fill-rule="evenodd" clip-rule="evenodd" d="M6.66602 8.66246C6.66602 10.5029 8.15803 11.995 9.99852 11.995C11.839 11.995 13.331 10.5029 13.331 8.66246C13.331 6.82197 11.839 5.32996 9.99852 5.32996C8.15803 5.32996 6.66602 6.82197 6.66602 8.66246ZM11.998 8.66246C11.998 9.76675 11.1028 10.662 9.9985 10.662C8.89421 10.662 7.999 9.76675 7.999 8.66246C7.999 7.55816 8.89421 6.66296 9.9985 6.66296C11.1028 6.66296 11.998 7.55816 11.998 8.66246ZM15.3305 18.66C15.6986 18.66 15.997 18.3616 15.997 17.9935V16.6605C15.997 14.82 14.505 13.328 12.6645 13.328H7.3325C5.49201 13.328 4 14.82 4 16.6605V17.9935C4 18.3616 4.2984 18.66 4.6665 18.66C5.0346 18.66 5.333 18.3616 5.333 17.9935V16.6605C5.333 15.5562 6.22821 14.661 7.3325 14.661H12.6645C13.7688 14.661 14.664 15.5562 14.664 16.6605V17.9935C14.664 18.3616 14.9624 18.66 15.3305 18.66ZM19.9962 17.9934C19.9962 18.3615 19.6978 18.6599 19.3297 18.6599C18.9616 18.6599 18.6632 18.3615 18.6632 17.9934V16.6609C18.6626 15.7497 18.0459 14.9542 17.1636 14.7264C16.8072 14.6344 16.5929 14.2709 16.6849 13.9145C16.7769 13.5581 17.1405 13.3437 17.4969 13.4358C18.9673 13.8154 19.9951 15.1413 19.9962 16.6604V17.9934ZM14.0185 5.91785C13.9272 6.27444 14.1423 6.63753 14.4989 6.72884C15.3836 6.95536 16.0024 7.75258 16.0024 8.66585C16.0024 9.57913 15.3836 10.3763 14.4989 10.6029C14.1423 10.6942 13.9272 11.0573 14.0185 11.4139C14.1098 11.7705 14.4729 11.9855 14.8295 11.8942C16.3041 11.5167 17.3354 10.188 17.3354 8.66585C17.3354 7.14373 16.3041 5.81504 14.8295 5.43749C14.4729 5.34619 14.1098 5.56125 14.0185 5.91785Z" fill="#1991FF"/>
</svg>
