<svg width="24" height="24" viewBox="0 0 24 24" fill="none" xmlns="http://www.w3.org/2000/svg">
<path fill-rule="evenodd" clip-rule="evenodd" d="M7.875 10.5C6.42525 10.5 5.25 9.32475 5.25 7.875C5.25 6.42525 6.42525 5.25 7.875 5.25C9.32475 5.25 10.5 6.42525 10.5 7.875C10.5 9.32475 9.32475 10.5 7.875 10.5ZM7.875 9C8.49632 9 9 8.49632 9 7.875C9 7.25368 8.49632 6.75 7.875 6.75C7.25368 6.75 6.75 7.25368 6.75 7.875C6.75 8.49632 7.25368 9 7.875 9ZM16.7197 6.21967C17.0126 5.92678 17.4874 5.92678 17.7803 6.21967C18.0732 6.51256 18.0732 6.98744 17.7803 7.28033L7.28033 17.7803C6.98744 18.0732 6.51256 18.0732 6.21967 17.7803C5.92678 17.4874 5.92678 17.0126 6.21967 16.7197L16.7197 6.21967ZM13.5 16.125C13.5 17.5747 14.6753 18.75 16.125 18.75C17.5747 18.75 18.75 17.5747 18.75 16.125C18.75 14.6753 17.5747 13.5 16.125 13.5C14.6753 13.5 13.5 14.6753 13.5 16.125ZM17.25 16.125C17.25 16.7463 16.7463 17.25 16.125 17.25C15.5037 17.25 15 16.7463 15 16.125C15 15.5037 15.5037 15 16.125 15C16.7463 15 17.25 15.5037 17.25 16.125Z" fill="#1991FF"/>
</svg>
