<svg width="24" height="24" viewBox="0 0 24 24" fill="none" xmlns="http://www.w3.org/2000/svg">
<path fill-rule="evenodd" clip-rule="evenodd" d="M6.33252 8.66246C6.33252 10.5029 7.82453 11.995 9.66502 11.995C11.5055 11.995 12.9975 10.5029 12.9975 8.66246C12.9975 6.82197 11.5055 5.32996 9.66502 5.32996C7.82453 5.32996 6.33252 6.82197 6.33252 8.66246ZM11.6648 8.66246C11.6648 9.76675 10.7695 10.662 9.66525 10.662C8.56096 10.662 7.66575 9.76675 7.66575 8.66246C7.66575 7.55816 8.56096 6.66296 9.66525 6.66296C10.7695 6.66296 11.6648 7.55816 11.6648 8.66246ZM14.664 18.66C15.0321 18.66 15.3305 18.3616 15.3305 17.9935V16.6605C15.3305 14.82 13.8385 13.328 11.998 13.328H7.3325C5.49201 13.328 4 14.82 4 16.6605V17.9935C4 18.3616 4.2984 18.66 4.6665 18.66C5.0346 18.66 5.333 18.3616 5.333 17.9935V16.6605C5.333 15.5562 6.22821 14.661 7.3325 14.661H11.998C13.1023 14.661 13.9975 15.5562 13.9975 16.6605V17.9935C13.9975 18.3616 14.2959 18.66 14.664 18.66ZM17.7205 11.995L16.1923 13.5232C15.932 13.7835 15.932 14.2055 16.1923 14.4658C16.4526 14.726 16.8746 14.726 17.1349 14.4658L19.8009 11.7998C20.0611 11.5395 20.0611 11.1175 19.8009 10.8572L17.1349 8.19118C16.8746 7.9309 16.4526 7.9309 16.1923 8.19118C15.932 8.45147 15.932 8.87347 16.1923 9.13376L17.7205 10.662H14.7474C14.3333 10.662 13.9976 10.9604 13.9976 11.3285C13.9976 11.6966 14.3333 11.995 14.7474 11.995H17.7205Z" fill="#1991FF"/>
</svg>
