<svg xmlns="http://www.w3.org/2000/svg" width="24" height="24" viewBox="0 0 24 24"><title>person-add</title><path d="M9.67,5A3.34,3.34,0,1,0,13,8.33,3.34,3.34,0,0,0,9.67,5Zm0,5.34a2,2,0,1,1,2-2A2,2,0,0,1,9.67,10.33Zm5.66,7.34a.67.67,0,0,1-1.33,0V16.33a2,2,0,0,0-2-2H7.33a2,2,0,0,0-2,2v1.34a.67.67,0,0,1-1.33,0V16.33A3.33,3.33,0,0,1,7.33,13H12a3.33,3.33,0,0,1,3.33,3.33Zm4-7.34H18V9a.67.67,0,1,0-1.33,0v1.33H15.33a.67.67,0,0,0,0,1.34h1.34V13A.67.67,0,1,0,18,13V11.67h1.33a.67.67,0,0,0,0-1.34Z" fill="#82c341"/></svg>