<svg width="24" height="24" viewBox="0 0 24 24" fill="none" xmlns="http://www.w3.org/2000/svg">
<path fill-rule="evenodd" clip-rule="evenodd" d="M6.33252 8.66246C6.33252 10.5029 7.82453 11.995 9.66502 11.995C11.5055 11.995 12.9975 10.5029 12.9975 8.66246C12.9975 6.82197 11.5055 5.32996 9.66502 5.32996C7.82453 5.32996 6.33252 6.82197 6.33252 8.66246ZM11.6648 8.66246C11.6648 9.76675 10.7695 10.662 9.66525 10.662C8.56096 10.662 7.66575 9.76675 7.66575 8.66246C7.66575 7.55816 8.56096 6.66296 9.66525 6.66296C10.7695 6.66296 11.6648 7.55816 11.6648 8.66246ZM14.664 18.66C15.0321 18.66 15.3305 18.3616 15.3305 17.9935V16.6605C15.3305 14.82 13.8385 13.328 11.998 13.328H7.3325C5.49201 13.328 4 14.82 4 16.6605V17.9935C4 18.3616 4.2984 18.66 4.6665 18.66C5.0346 18.66 5.333 18.3616 5.333 17.9935V16.6605C5.333 15.5562 6.22821 14.661 7.3325 14.661H11.998C13.1023 14.661 13.9975 15.5562 13.9975 16.6605V17.9935C13.9975 18.3616 14.2959 18.66 14.664 18.66ZM15.5258 9.80026C15.2655 9.53998 15.2655 9.11797 15.5258 8.85769C15.7861 8.5974 16.2081 8.5974 16.4684 8.85769L17.6633 10.0527L18.8583 8.85769C19.1186 8.5974 19.5406 8.5974 19.8009 8.85769C20.0611 9.11797 20.0611 9.53998 19.8009 9.80026L18.6059 10.9952L19.8009 12.1902C20.0611 12.4505 20.0611 12.8725 19.8009 13.1328C19.5406 13.393 19.1186 13.393 18.8583 13.1328L17.6633 11.9378L16.4684 13.1328C16.2081 13.393 15.7861 13.393 15.5258 13.1328C15.2655 12.8725 15.2655 12.4505 15.5258 12.1902L16.7207 10.9952L15.5258 9.80026Z" fill="#1991FF"/>
</svg>
