<svg width="24" height="24" viewBox="0 0 24 24" fill="none" xmlns="http://www.w3.org/2000/svg">
<path fill-rule="evenodd" clip-rule="evenodd" d="M8.66616 8.66246C8.66616 10.5029 10.1582 11.995 11.9987 11.995C13.8392 11.995 15.3312 10.5029 15.3312 8.66246C15.3312 6.82197 13.8392 5.32996 11.9987 5.32996C10.1582 5.32996 8.66616 6.82197 8.66616 8.66246ZM13.998 8.66244C13.998 9.76673 13.1028 10.6619 11.9985 10.6619C10.8942 10.6619 9.99898 9.76673 9.99898 8.66244C9.99898 7.55814 10.8942 6.66294 11.9985 6.66294C13.1028 6.66294 13.998 7.55814 13.998 8.66244ZM17.3305 18.6599C17.6986 18.6599 17.997 18.3615 17.997 17.9934V16.6604C17.997 14.8199 16.505 13.3279 14.6645 13.3279H9.3325C7.49201 13.3279 6 14.8199 6 16.6604V17.9934C6 18.3615 6.2984 18.6599 6.6665 18.6599C7.0346 18.6599 7.333 18.3615 7.333 17.9934V16.6604C7.333 15.5561 8.22821 14.6609 9.3325 14.6609H14.6645C15.7688 14.6609 16.664 15.5561 16.664 16.6604V17.9934C16.664 18.3615 16.9624 18.6599 17.3305 18.6599Z" fill="#1991FF"/>
</svg>
