<svg width="24" height="24" viewBox="0 0 24 24" fill="none" xmlns="http://www.w3.org/2000/svg">
<path fill-rule="evenodd" clip-rule="evenodd" d="M9.66502 11.995C7.82453 11.995 6.33252 10.5029 6.33252 8.66246C6.33252 6.82197 7.82453 5.32996 9.66502 5.32996C11.5055 5.32996 12.9975 6.82197 12.9975 8.66246C12.9975 10.5029 11.5055 11.995 9.66502 11.995ZM9.66525 10.662C10.7695 10.662 11.6648 9.76675 11.6648 8.66246C11.6648 7.55816 10.7695 6.66296 9.66525 6.66296C8.56096 6.66296 7.66575 7.55816 7.66575 8.66246C7.66575 9.76675 8.56096 10.662 9.66525 10.662ZM15.3305 17.9935C15.3305 18.3616 15.0321 18.66 14.664 18.66C14.2959 18.66 13.9975 18.3616 13.9975 17.9935V16.6605C13.9975 15.5562 13.1023 14.661 11.998 14.661H7.3325C6.22821 14.661 5.333 15.5562 5.333 16.6605V17.9935C5.333 18.3616 5.0346 18.66 4.6665 18.66C4.2984 18.66 4 18.3616 4 17.9935V16.6605C4 14.82 5.49201 13.328 7.3325 13.328H11.998C13.8385 13.328 15.3305 14.82 15.3305 16.6605V17.9935ZM19.9961 11.3285C19.9961 10.9604 19.6977 10.662 19.3296 10.662H15.3306C14.9625 10.662 14.6641 10.9604 14.6641 11.3285C14.6641 11.6966 14.9625 11.995 15.3306 11.995H19.3296C19.6977 11.995 19.9961 11.6966 19.9961 11.3285Z" fill="#1991FF"/>
</svg>
