<svg width="24" height="24" viewBox="0 0 24 24" fill="none" xmlns="http://www.w3.org/2000/svg">
<path fill-rule="evenodd" clip-rule="evenodd" d="M18.5378 15.6371C18.5473 15.2479 18.2769 14.9289 17.916 14.8779C17.1595 14.7782 16.4168 14.5931 15.7003 14.3258C15.4332 14.2254 15.1321 14.2896 14.932 14.4874L14.0037 15.4157C13.771 15.6484 13.4116 15.6969 13.1255 15.5342C11.1811 14.4286 9.5712 12.8187 8.46559 10.8743C8.30294 10.5883 8.35147 10.2288 8.58415 9.99613L9.50959 9.0707C9.71025 8.86779 9.77447 8.56665 9.67345 8.29788C9.4067 7.58304 9.22168 6.84032 9.12283 6.09061C9.07148 5.7273 8.75876 5.45836 8.38467 5.46201L6.19245 5.46201C5.98727 5.4622 5.79161 5.54863 5.65328 5.70017C5.51494 5.85171 5.44667 6.05441 5.46402 6.24736C5.69183 8.39261 6.42177 10.454 7.59816 12.27C8.66289 13.9456 10.0835 15.3662 11.7647 16.4346C13.5671 17.6034 15.6186 18.3332 17.7411 18.5639C17.9461 18.5825 18.1494 18.5137 18.301 18.3746C18.4527 18.2354 18.5387 18.0388 18.5378 17.83V15.6371ZM19.9995 15.6453L19.9995 17.827C20.002 18.4445 19.7441 19.0344 19.2891 19.4518C18.8341 19.8693 18.2242 20.0755 17.5961 20.0186C15.2331 19.7619 12.9633 18.9544 10.9748 17.6648C9.11805 16.485 7.54387 14.9108 6.3675 13.0595C5.06972 11.0562 4.26209 8.77533 4.00891 6.39034C3.95351 5.77728 4.15832 5.16917 4.57332 4.71454C4.98832 4.25992 5.57529 4.00065 6.19154 4.00007L8.37725 4.00011C9.47794 3.98927 10.4161 4.7961 10.5711 5.89273C10.6564 6.53985 10.8147 7.17524 11.0423 7.78513C11.3435 8.5865 11.1509 9.4899 10.546 10.1015L10.0218 10.6257C10.8813 11.9741 12.0255 13.1183 13.3739 13.9778L13.901 13.4507C14.5097 12.8488 15.4131 12.6561 16.2128 12.9567C16.8244 13.1849 17.4598 13.3432 18.1134 13.4294C19.2127 13.5845 20.0221 14.5364 19.9995 15.6453Z" fill="#1991FF"/>
</svg>
