<svg width="24" height="24" viewBox="0 0 24 24" fill="none" xmlns="http://www.w3.org/2000/svg">
<path fill-rule="evenodd" clip-rule="evenodd" d="M19.7719 12.4789C20.1736 12.4789 20.4992 12.1532 20.4992 11.7515C20.4992 9.62937 19.6564 7.59416 18.1562 6.09359C16.656 4.59301 14.6213 3.75 12.4997 3.75C12.0981 3.75 11.7725 4.07567 11.7725 4.47741V11.7515C11.7725 12.1532 12.0981 12.4789 12.4997 12.4789H19.7719ZM13.2276 5.24536C14.6959 5.40952 16.0736 6.06727 17.1284 7.12233C18.1832 8.17738 18.8408 9.55547 19.0049 11.0241H13.2276V5.24536ZM19.4802 13.9112C19.1103 13.7547 18.6836 13.9278 18.5272 14.2978C17.3817 17.0074 14.5699 18.62 11.6534 18.2399C8.73692 17.8599 6.43204 15.5806 6.01882 12.6679C5.60559 9.75521 7.18552 6.9245 9.88118 5.74787C10.2493 5.58719 10.4175 5.15844 10.2568 4.79024C10.0962 4.42203 9.66757 4.2538 9.29946 4.41448C6.00477 5.85259 4.07374 9.31234 4.57879 12.8723C5.08384 16.4323 7.90092 19.2181 11.4655 19.6826C15.0301 20.1471 18.4667 18.1762 19.8668 14.8644C20.0232 14.4944 19.8501 14.0676 19.4802 13.9112Z" fill="#1991FF"/>
</svg>
