<svg width="24" height="24" viewBox="0 0 24 24" fill="none" xmlns="http://www.w3.org/2000/svg">
<path fill-rule="evenodd" clip-rule="evenodd" d="M6.75 6C6.33579 6 6 6.33579 6 6.75V17.25C6 17.6642 6.33579 18 6.75 18H17.25C17.6642 18 18 17.6642 18 17.25V6.75C18 6.33579 17.6642 6 17.25 6H6.75ZM6.75 4.5H17.25C18.4926 4.5 19.5 5.50736 19.5 6.75V17.25C19.5 18.4926 18.4926 19.5 17.25 19.5H6.75C5.50736 19.5 4.5 18.4926 4.5 17.25V6.75C4.5 5.50736 5.50736 4.5 6.75 4.5ZM11.25 9C11.25 8.58579 11.5858 8.25 12 8.25C12.4142 8.25 12.75 8.58579 12.75 9V11.25H15C15.4142 11.25 15.75 11.5858 15.75 12C15.75 12.4142 15.4142 12.75 15 12.75H12.75V15C12.75 15.4142 12.4142 15.75 12 15.75C11.5858 15.75 11.25 15.4142 11.25 15V12.75H9C8.58579 12.75 8.25 12.4142 8.25 12C8.25 11.5858 8.58579 11.25 9 11.25H11.25V9Z" fill="#1991FF"/>
</svg>
