<svg width="24" height="24" viewBox="0 0 24 24" fill="none" xmlns="http://www.w3.org/2000/svg">
<path fill-rule="evenodd" clip-rule="evenodd" d="M12.5216 3C12.12 3 11.7944 3.32557 11.7944 3.72718V10.9989C11.7944 11.4005 12.12 11.7261 12.5216 11.7261C12.9232 11.7261 13.2488 11.4005 13.2488 10.9989V3.72718C13.2488 3.32557 12.9232 3 12.5216 3ZM16.6322 6.58699C16.3482 6.87092 16.3481 7.33134 16.6321 7.61537C18.9034 9.8874 18.903 13.5704 16.6312 15.842C14.3594 18.1135 10.6763 18.1135 8.40455 15.842C6.13276 13.5704 6.13236 9.8874 8.40366 7.61537C8.68759 7.33134 8.68751 6.87092 8.40349 6.58699C8.11946 6.30305 7.65904 6.30313 7.3751 6.58715C4.53599 9.4272 4.53649 14.031 7.37622 16.8704C10.216 19.7098 14.8198 19.7098 17.6595 16.8704C20.4992 14.031 20.4997 9.4272 17.6606 6.58715C17.3767 6.30313 16.9163 6.30305 16.6322 6.58699Z" fill="#1991FF"/>
</svg>
