<svg width="24" height="24" viewBox="0 0 24 24" fill="none" xmlns="http://www.w3.org/2000/svg">
<path fill-rule="evenodd" clip-rule="evenodd" d="M8.36372 5.45454V9.09088H15.6364V5.45454H8.36372ZM7.63645 10.5454L7.631 10.5454H6.18182C5.78015 10.5454 5.45454 10.871 5.45454 11.2727V14.9091C5.45454 15.3107 5.78015 15.6363 6.18182 15.6363H6.90918V13.4546C6.90918 13.053 7.23479 12.7274 7.63645 12.7274H16.3637C16.7654 12.7274 17.091 13.053 17.091 13.4546V15.6363H17.8182C18.2198 15.6363 18.5454 15.3107 18.5454 14.9091V11.2727C18.5454 10.871 18.2198 10.5454 17.8182 10.5454H16.3692L16.3637 10.5454L16.3583 10.5454H7.64191L7.63645 10.5454ZM17.091 17.0909H17.8182C19.0231 17.0909 20 16.114 20 14.9091V11.2727C20 10.0677 19.0231 9.09088 17.8182 9.09088H17.091V4.72727C17.091 4.32561 16.7654 4 16.3637 4H7.63645C7.23479 4 6.90918 4.32561 6.90918 4.72727V9.09088H6.18182C4.97683 9.09088 4 10.0677 4 11.2727V14.9091C4 16.114 4.97683 17.0909 6.18182 17.0909H6.90918V19.2728C6.90918 19.6745 7.23479 20.0001 7.63645 20.0001H16.3637C16.7654 20.0001 17.091 19.6745 17.091 19.2728V17.0909ZM8.36354 16.3751V18.5455H15.6363V14.1818H8.36354V16.3521C8.3636 16.3559 8.36363 16.3598 8.36363 16.3636C8.36363 16.3674 8.3636 16.3713 8.36354 16.3751Z" fill="#1991FF"/>
</svg>
