<svg xmlns="http://www.w3.org/2000/svg" width="24" height="24" viewBox="0 0 24 24"><title>refresh</title><path d="M17.88,10.29a.66.66,0,0,1-.85-.4,5.34,5.34,0,0,0-8.81-2L6.35,9.67H8.67a.66.66,0,0,1,.66.66.67.67,0,0,1-.66.67h-4a.42.42,0,0,1-.16,0,.18.18,0,0,1-.1,0l-.07,0a.45.45,0,0,1-.14-.1h0a.56.56,0,0,0,0-.08.57.57,0,0,1-.08-.13.8.8,0,0,1,0-.15.36.36,0,0,1,0-.1v-4a.67.67,0,0,1,1.33,0V8.79L7.29,7a6.67,6.67,0,0,1,11,2.49A.67.67,0,0,1,17.88,10.29ZM20,12.9a.8.8,0,0,0,0-.15.57.57,0,0,0-.08-.13.56.56,0,0,0-.05-.08h0a.76.76,0,0,0-.14-.11l-.07,0-.1,0a.42.42,0,0,0-.16,0h-4a.67.67,0,0,0,0,1.34h2.32l-1.87,1.75a5.32,5.32,0,0,1-8.81-2,.67.67,0,0,0-1.26.45,6.67,6.67,0,0,0,11,2.49l2-1.84V17A.67.67,0,1,0,20,17V13A.3.3,0,0,0,20,12.9Z" fill="#1991ff"/></svg>