<svg width="24" height="24" viewBox="0 0 24 24" fill="none" xmlns="http://www.w3.org/2000/svg">
<path fill-rule="evenodd" clip-rule="evenodd" d="M14.5288 4.19526C14.2684 4.45561 14.2684 4.87772 14.5288 5.13807L16.0574 6.66669H8.33333C6.49238 6.66669 5 8.15907 5 10V11.3334C5 11.7015 5.29848 12 5.66667 12C6.03486 12 6.33333 11.7015 6.33333 11.3334V10C6.33333 8.89545 7.22876 8.00002 8.33333 8.00002H16.0573L14.5288 9.5286C14.2684 9.78894 14.2684 10.2111 14.5288 10.4714C14.7891 10.7318 15.2112 10.7318 15.4716 10.4714L18.1382 7.80474C18.3986 7.54439 18.3986 7.12228 18.1382 6.86193L15.4716 4.19526C15.2112 3.93491 14.7891 3.93491 14.5288 4.19526ZM7.27616 17.3333L8.80474 18.8619C9.06509 19.1223 9.06509 19.5444 8.80474 19.8047C8.54439 20.0651 8.12228 20.0651 7.86193 19.8047L5.19848 17.1413C5.18757 17.1305 5.17704 17.1194 5.16689 17.1079C5.06303 16.9903 5 16.8359 5 16.6667C5 16.5799 5.01659 16.4969 5.04677 16.4209C5.0793 16.3387 5.1288 16.2617 5.19526 16.1952L7.86193 13.5286C8.12228 13.2682 8.54439 13.2682 8.80474 13.5286C9.06509 13.7889 9.06509 14.211 8.80474 14.4714L7.27612 16H15C16.1046 16 17 15.1046 17 14V12.6667C17 12.2985 17.2985 12 17.6667 12C18.0349 12 18.3333 12.2985 18.3333 12.6667V14C18.3333 15.8409 16.8409 17.3333 15 17.3333H7.27616Z" fill="#1991FF"/>
</svg>
