<svg width="24" height="24" viewBox="0 0 24 24" fill="none" xmlns="http://www.w3.org/2000/svg">
<path fill-rule="evenodd" clip-rule="evenodd" d="M5.91223 11.8196L10.5458 8.21567V15.4235L5.91223 11.8196ZM4.28077 12.3935L10.8262 17.4845C11.3039 17.856 12 17.5156 12 16.9104V11.8199C12.0001 12.034 12.0937 12.2481 12.2808 12.3935L18.8262 17.4845C19.3039 17.856 20 17.5156 20 16.9104V6.72856C20 6.12336 19.3039 5.78293 18.8262 6.15448L12.2808 11.2454C12.0937 11.3909 12.0001 11.6049 12 11.819V6.72856C12 6.12336 11.3039 5.78293 10.8262 6.15448L4.28077 11.2454C3.90641 11.5366 3.90641 12.1024 4.28077 12.3935ZM13.9123 11.8196L18.5458 8.21567V15.4235L13.9123 11.8196Z" fill="#1991FF"/>
</svg>
