<svg width="24" height="24" viewBox="0 0 24 24" fill="none" xmlns="http://www.w3.org/2000/svg">
<path fill-rule="evenodd" clip-rule="evenodd" d="M7.2002 5.6H6.4C5.95817 5.6 5.6 5.95817 5.6 6.4V17.6C5.6 18.0418 5.95817 18.4 6.4 18.4H7.2002V12.8C7.2002 12.3582 7.55837 12 8.0002 12H16.0002C16.442 12 16.8002 12.3582 16.8002 12.8V18.4H17.6C18.0418 18.4 18.4 18.0418 18.4 17.6V9.13137L14.8686 5.6H8.8002V8H14.4002C14.842 8 15.2002 8.35817 15.2002 8.8C15.2002 9.24183 14.842 9.6 14.4002 9.6H8.0002C7.55837 9.6 7.2002 9.24183 7.2002 8.8V5.6ZM8.0002 4H6.4C5.07452 4 4 5.07452 4 6.4V17.6C4 18.9255 5.07452 20 6.4 20H8.0002H16.0002H17.6C18.9255 20 20 18.9255 20 17.6V8.8C20 8.58783 19.9157 8.38434 19.7657 8.23431L15.7657 4.23431C15.6157 4.08429 15.4122 4 15.2 4H8.0002ZM8.8002 13.6V18.4H15.2002V13.6H8.8002Z" fill="#1991FF"/>
</svg>
