<svg width="24" height="24" viewBox="0 0 24 24" fill="none" xmlns="http://www.w3.org/2000/svg">
<path fill-rule="evenodd" clip-rule="evenodd" d="M7.20001 10.4C5.43269 10.4 4 8.96732 4 7.20001C4 5.43269 5.43269 4 7.20001 4C8.96732 4 10.4 5.43269 10.4 7.20001C10.4 7.79352 10.2384 8.34929 9.95686 8.82573L11.9998 10.8686L17.834 5.03436C18.1465 4.72194 18.653 4.72194 18.9654 5.03436C19.2778 5.34678 19.2778 5.85332 18.9654 6.16574L9.95687 15.1743C10.2384 15.6507 10.4 16.2065 10.4 16.8C10.4 18.5673 8.96732 20 7.20001 20C5.43269 20 4 18.5673 4 16.8C4 15.0327 5.43269 13.6 7.20001 13.6C7.7934 13.6 8.34906 13.7615 8.82545 14.043L10.8684 12L8.82543 9.95705C8.34905 10.2385 7.79339 10.4 7.20001 10.4ZM8.362 8.29996C8.35113 8.30971 8.34047 8.31981 8.33002 8.33026C8.31961 8.34067 8.30955 8.35129 8.29984 8.36212C8.01313 8.63352 7.62605 8.79997 7.20009 8.79997C6.31643 8.79997 5.60009 8.08363 5.60009 7.19997C5.60009 6.31631 6.31643 5.59997 7.20009 5.59997C8.08375 5.59997 8.80009 6.31631 8.80009 7.19997C8.80009 7.62605 8.63355 8.01323 8.362 8.29996ZM8.29973 15.6378C8.30947 15.6486 8.31957 15.6593 8.33002 15.6698C8.3405 15.6802 8.35121 15.6904 8.36212 15.7002C8.63359 15.9869 8.80009 16.374 8.80009 16.8C8.80009 17.6837 8.08375 18.4 7.20009 18.4C6.31643 18.4 5.60009 17.6837 5.60009 16.8C5.60009 15.9164 6.31643 15.2 7.20009 15.2C7.62599 15.2 8.01303 15.3664 8.29973 15.6378ZM13.4111 14.5502C13.0984 14.238 13.0979 13.7315 13.4101 13.4188C13.7222 13.1061 14.2287 13.1056 14.5414 13.4178L18.9655 17.8338C19.2782 18.1459 19.2786 18.6524 18.9665 18.9651C18.6543 19.2778 18.1478 19.2783 17.8351 18.9662L13.4111 14.5502Z" fill="#1991FF"/>
</svg>
