<svg width="24" height="24" viewBox="0 0 24 24" fill="none" xmlns="http://www.w3.org/2000/svg">
<path fill-rule="evenodd" clip-rule="evenodd" d="M5 10.9501C5 14.2363 7.66396 16.9003 10.9501 16.9003C12.3408 16.9003 13.6201 16.4231 14.6332 15.6237L17.8046 18.7951C18.078 19.0685 18.5212 19.0685 18.7945 18.7951C19.0679 18.5217 19.0679 18.0785 18.7945 17.8051L15.6232 14.6338C16.423 13.6206 16.9003 12.3411 16.9003 10.9501C16.9003 7.66396 14.2363 5 10.9501 5C7.66396 5 5 7.66396 5 10.9501ZM14.2129 14.1209C15.0093 13.3015 15.4998 12.183 15.4998 10.95C15.4998 8.43703 13.4626 6.39988 10.9497 6.39988C8.43674 6.39988 6.3996 8.43703 6.3996 10.95C6.3996 13.4629 8.43674 15.5001 10.9497 15.5001C12.1826 15.5001 13.301 15.0097 14.1204 14.2134C14.1342 14.1968 14.1489 14.1806 14.1645 14.1651C14.1801 14.1495 14.1962 14.1348 14.2129 14.1209Z" fill="#1991FF"/>
</svg>
