<svg xmlns="http://www.w3.org/2000/svg" width="24" height="24" viewBox="0 0 24 24"><title>server</title><path d="M17.82,12.73H6.18A2.18,2.18,0,0,0,4,14.91v2.91A2.19,2.19,0,0,0,6.18,20H17.82A2.19,2.19,0,0,0,20,17.82V14.91A2.18,2.18,0,0,0,17.82,12.73Zm.73,5.09a.73.73,0,0,1-.73.73H6.18a.73.73,0,0,1-.73-.73V14.91a.73.73,0,0,1,.73-.73H17.82a.73.73,0,0,1,.73.73ZM17.82,4H6.18A2.19,2.19,0,0,0,4,6.18V9.09a2.18,2.18,0,0,0,2.18,2.18H17.82A2.18,2.18,0,0,0,20,9.09V6.18A2.19,2.19,0,0,0,17.82,4Zm.73,5.09a.73.73,0,0,1-.73.73H6.18a.73.73,0,0,1-.73-.73V6.18a.73.73,0,0,1,.73-.73H17.82a.73.73,0,0,1,.73.73Z" fill="#1991ff"/></svg>