<svg width="24" height="24" viewBox="0 0 24 24" fill="none" xmlns="http://www.w3.org/2000/svg">
<path fill-rule="evenodd" clip-rule="evenodd" d="M18 12.6667H17.94C17.2344 12.6695 16.6001 13.0887 16.322 13.7341C16.0323 14.3941 16.1726 15.1641 16.6768 15.6795L16.7219 15.7247C16.8474 15.85 16.9177 16.0197 16.9177 16.1967C16.9177 16.3736 16.8474 16.5433 16.7222 16.6683C16.5966 16.794 16.4269 16.8644 16.25 16.8644C16.0731 16.8644 15.9034 16.794 15.7783 16.6689L15.7381 16.6286C15.2166 16.1184 14.4449 15.9785 13.7842 16.2701C13.1435 16.5446 12.7228 17.1799 12.72 17.884L12.72 18C12.72 18.3682 12.4215 18.6667 12.0533 18.6667C11.6851 18.6667 11.3867 18.3682 11.3867 18V17.94C11.3695 17.1992 10.911 16.558 10.2301 16.3076C9.60845 16.0318 8.83677 16.1717 8.32049 16.6768L8.27526 16.7219C8.14995 16.8474 7.98027 16.9177 7.80333 16.9177C7.62639 16.9177 7.45671 16.8474 7.33167 16.7222C7.20596 16.5966 7.13562 16.4269 7.13562 16.25C7.13562 16.0731 7.20596 15.9034 7.33114 15.7783L7.3714 15.7381C7.88159 15.2166 8.02151 14.4449 7.72991 13.7842C7.45537 13.1435 6.82014 12.7228 6.11599 12.72L6 12.72C5.63181 12.72 5.33333 12.4215 5.33333 12.0533C5.33333 11.6851 5.63181 11.3867 6 11.3867H6.06C6.80081 11.3695 7.44196 10.911 7.69236 10.2301C7.96818 9.60845 7.82826 8.83677 7.32324 8.32049L7.27807 8.27526C7.15262 8.14995 7.08228 7.98027 7.08228 7.80333C7.08228 7.62639 7.15262 7.45671 7.27781 7.33167C7.40338 7.20596 7.57306 7.13562 7.75 7.13562C7.92694 7.13562 8.09662 7.20596 8.22167 7.33114L8.26193 7.3714C8.74975 7.84864 9.45648 8.00189 10.0865 7.78103C10.147 7.77311 10.2063 7.7569 10.2626 7.73276C10.9098 7.45537 11.3305 6.82014 11.3333 6.11599L11.3333 6C11.3333 5.63181 11.6318 5.33333 12 5.33333C12.3682 5.33333 12.6667 5.63181 12.6667 6V6.06C12.6695 6.7668 13.0902 7.40204 13.7374 7.67943C14.3915 7.96818 15.1632 7.82826 15.6795 7.32324L15.7247 7.27807C15.85 7.15262 16.0197 7.08228 16.1967 7.08228C16.3736 7.08228 16.5433 7.15262 16.6683 7.27781C16.794 7.40338 16.8644 7.57306 16.8644 7.75C16.8644 7.92694 16.794 8.09662 16.6689 8.22167L16.6286 8.26193C16.1514 8.74975 15.9981 9.45648 16.219 10.0865C16.2269 10.147 16.2431 10.2063 16.2672 10.2626C16.5446 10.9098 17.1799 11.3305 17.884 11.3333L18 11.3333C18.3682 11.3333 18.6667 11.6318 18.6667 12C18.6667 12.3682 18.3682 12.6667 18 12.6667ZM16.3206 13.7374L16.3235 13.7308L16.322 13.7341L16.3206 13.7374ZM17.8867 10C17.7442 9.99943 17.6118 9.92694 17.5325 9.81012C17.523 9.76466 17.5088 9.7202 17.4899 9.67749C17.4184 9.51543 17.4527 9.32615 17.5766 9.19951L17.6114 9.16474C17.9867 8.78986 18.1977 8.28082 18.1977 7.75C18.1977 7.21918 17.9867 6.71014 17.6111 6.335C17.2365 5.95997 16.7275 5.74895 16.1967 5.74895C15.6658 5.74895 15.1568 5.95997 14.7817 6.33552L14.7419 6.37526C14.6205 6.49396 14.4312 6.52828 14.2692 6.45676C14.1039 6.38587 14.0007 6.23006 14 6.05734L14 6C14 4.89543 13.1046 4 12 4C10.8954 4 10 4.89543 10 6V6.11333C9.99943 6.25578 9.92694 6.38822 9.81012 6.46747C9.76466 6.47698 9.7202 6.49124 9.67749 6.51009C9.51543 6.58162 9.32615 6.5473 9.19951 6.42342L9.16474 6.3886C8.78986 6.0133 8.28082 5.80228 7.75 5.80228C7.21918 5.80228 6.71014 6.0133 6.335 6.38886C5.95997 6.76347 5.74895 7.27251 5.74895 7.80333C5.74895 8.33415 5.95997 8.8432 6.33552 9.21833L6.37526 9.25807C6.49396 9.37948 6.52828 9.56876 6.45676 9.73082C6.37956 9.93688 6.22229 10.0494 6 10.0533C4.89543 10.0533 4 10.9488 4 12.0533C4 13.1579 4.89543 14.0533 6 14.0533H6.11333C6.28339 14.054 6.4392 14.1572 6.50724 14.316C6.58162 14.4846 6.5473 14.6739 6.42342 14.8005L6.3886 14.8353C6.0133 15.2101 5.80228 15.7192 5.80228 16.25C5.80228 16.7808 6.0133 17.2899 6.38886 17.665C6.76347 18.04 7.27251 18.251 7.80333 18.251C8.33415 18.251 8.8432 18.04 9.21833 17.6645L9.25807 17.6247C9.37948 17.506 9.56876 17.4717 9.73082 17.5432C9.93688 17.6204 10.0494 17.7777 10.0533 18C10.0533 19.1046 10.9488 20 12.0533 20C13.1579 20 14.0533 19.1046 14.0533 18V17.8867C14.054 17.7166 14.1572 17.5608 14.316 17.4928C14.4846 17.4184 14.6739 17.4527 14.8005 17.5766L14.8353 17.6114C15.2101 17.9867 15.7192 18.1977 16.25 18.1977C16.7808 18.1977 17.2899 17.9867 17.665 17.6111C18.04 17.2365 18.251 16.7275 18.251 16.1967C18.251 15.6658 18.04 15.1568 17.6645 14.7817L17.6247 14.7419C17.506 14.6205 17.4717 14.4312 17.5461 14.2626C17.6141 14.1039 17.7699 14.0007 17.9427 14L18 14C19.1046 14 20 13.1046 20 12C20 10.8954 19.1046 10 18 10H17.8867ZM9.3335 12C9.3335 13.4728 10.5274 14.6667 12.0002 14.6667C13.4729 14.6667 14.6668 13.4728 14.6668 12C14.6668 10.5272 13.4729 9.33333 12.0002 9.33333C10.5274 9.33333 9.3335 10.5272 9.3335 12ZM13.3333 12C13.3333 12.7364 12.7364 13.3333 12 13.3333C11.2636 13.3333 10.6667 12.7364 10.6667 12C10.6667 11.2636 11.2636 10.6667 12 10.6667C12.7364 10.6667 13.3333 11.2636 13.3333 12Z" fill="#1991FF"/>
</svg>
