<svg width="24" height="24" viewBox="0 0 24 24" fill="none" xmlns="http://www.w3.org/2000/svg">
<path fill-rule="evenodd" clip-rule="evenodd" d="M13.5659 7.70029C13.495 7.44873 13.457 7.18334 13.457 6.90909C13.457 5.30244 14.7595 4 16.3661 4C17.9728 4 19.2752 5.30244 19.2752 6.90909C19.2752 8.51574 17.9728 9.81818 16.3661 9.81818C15.5578 9.81818 14.8266 9.48854 14.2994 8.95637L10.4393 11.209C10.5102 11.4605 10.5482 11.7258 10.5482 12C10.5482 12.274 10.5103 12.5392 10.4394 12.7906L14.3017 15.0412C14.8288 14.5105 15.5591 14.1818 16.3661 14.1818C17.9728 14.1818 19.2752 15.4843 19.2752 17.0909C19.2752 18.6976 17.9728 20 16.3661 20C14.7595 20 13.457 18.6976 13.457 17.0909C13.457 16.8155 13.4953 16.549 13.5668 16.2965L9.70627 14.0468C9.17904 14.5793 8.44757 14.9091 7.63907 14.9091C6.03242 14.9091 4.72998 13.6066 4.72998 12C4.72998 10.3934 6.03242 9.09091 7.63907 9.09091C8.44742 9.09091 9.17877 9.42061 9.70597 9.95287L13.5659 7.70029ZM15.1307 7.67691C15.1245 7.66473 15.1179 7.65266 15.1109 7.64071C15.1039 7.62866 15.0966 7.61688 15.089 7.60539C14.976 7.39859 14.9118 7.16134 14.9118 6.90909C14.9118 6.10577 15.563 5.45455 16.3663 5.45455C17.1697 5.45455 17.8209 6.10577 17.8209 6.90909C17.8209 7.71241 17.1697 8.36364 16.3663 8.36364C15.8449 8.36364 15.3875 8.08922 15.1307 7.67691ZM8.87575 11.2339C8.61919 10.8206 8.16127 10.5455 7.63907 10.5455C6.83575 10.5455 6.18453 11.1967 6.18453 12C6.18453 12.8033 6.83575 13.4545 7.63907 13.4545C8.16128 13.4545 8.61921 13.1793 8.87576 12.7661C8.88165 12.7546 8.88787 12.7433 8.89443 12.732C8.90119 12.7204 8.90823 12.7091 8.91552 12.698C9.02906 12.4908 9.09362 12.2529 9.09362 12C9.09362 11.7471 9.02906 11.5092 8.91553 11.302C8.90832 11.2911 8.90136 11.2799 8.89467 11.2684C8.88801 11.257 8.88171 11.2455 8.87575 11.2339ZM15.1184 16.3589C15.103 16.3853 15.0862 16.4104 15.0682 16.4341C14.9682 16.6314 14.9118 16.8546 14.9118 17.0909C14.9118 17.8942 15.563 18.5455 16.3663 18.5455C17.1697 18.5455 17.8209 17.8942 17.8209 17.0909C17.8209 16.2876 17.1697 15.6364 16.3663 15.6364C15.8626 15.6364 15.4187 15.8924 15.1577 16.2815C15.1463 16.3077 15.1332 16.3336 15.1184 16.3589Z" fill="#1991FF"/>
</svg>
