<svg width="24" height="24" viewBox="0 0 24 24" fill="none" xmlns="http://www.w3.org/2000/svg">
<path fill-rule="evenodd" clip-rule="evenodd" d="M11.8707 19.9232C11.666 20.0256 11.425 20.0256 11.2202 19.9232C11.0188 19.8225 10.6808 19.6354 10.2509 19.3667C9.5381 18.9212 8.82541 18.4045 8.15745 17.8201C6.19692 16.1046 5 14.1596 5 12V6.18182C5 5.8481 5.22713 5.5572 5.55088 5.47626L11.3691 4.02171C11.4849 3.99276 11.606 3.99276 11.7218 4.02171L17.54 5.47626C17.8638 5.5572 18.0909 5.8481 18.0909 6.18182V12C18.0909 14.1596 16.894 16.1046 14.9335 17.8201C14.2655 18.4045 13.5528 18.9212 12.84 19.3667C12.4101 19.6354 12.0721 19.8225 11.8707 19.9232ZM12.0691 18.1333C12.7199 17.7265 13.3709 17.2546 13.9756 16.7254C15.6515 15.259 16.6364 13.6586 16.6364 12V6.74964L11.5455 5.47692L6.45455 6.74964V12C6.45455 13.6586 7.43945 15.259 9.11528 16.7254C9.72004 17.2546 10.371 17.7265 11.0218 18.1333C11.2088 18.2501 11.3844 18.3544 11.5455 18.4456C11.7065 18.3544 11.8821 18.2501 12.0691 18.1333Z" fill="#1991FF"/>
</svg>
