<svg width="24" height="24" viewBox="0 0 24 24" fill="none" xmlns="http://www.w3.org/2000/svg">
<path fill-rule="evenodd" clip-rule="evenodd" d="M9.16118 13.4199L8.53401 8.66659H18.52L17.5597 13.4623C17.4966 13.7801 17.2157 14.0062 16.8928 14L9.83349 13.9998C9.491 14.0027 9.20496 13.7539 9.16118 13.4199ZM19.3331 7.33329H8.35785L8.14755 5.73943C8.01724 4.74559 7.17054 4.00152 6.16765 4H4.66666C4.29847 4 4 4.29847 4 4.66666C4 5.03484 4.29847 5.33331 4.66666 5.33331H6.16664C6.49993 5.33382 6.78216 5.58184 6.82562 5.91331L7.83901 13.5937C7.97027 14.5951 8.8284 15.3417 9.8389 15.3331L16.8798 15.3332C17.8356 15.3516 18.6783 14.6733 18.867 13.7231L19.9868 8.13084C20.0694 7.71827 19.7539 7.33329 19.3331 7.33329ZM9.33298 19.9998C8.22843 19.9998 7.33301 19.1044 7.33301 17.9998C7.33301 16.8953 8.22843 15.9999 9.33298 15.9999C10.4375 15.9999 11.333 16.8953 11.333 17.9998C11.333 19.1044 10.4375 19.9998 9.33298 19.9998ZM9.33348 18.6665C9.70166 18.6665 10.0001 18.368 10.0001 17.9998C10.0001 17.6317 9.70166 17.3332 9.33348 17.3332C8.96529 17.3332 8.66682 17.6317 8.66682 17.9998C8.66682 18.368 8.96529 18.6665 9.33348 18.6665ZM17.333 19.9998C16.2284 19.9998 15.333 19.1044 15.333 17.9998C15.333 16.8953 16.2284 15.9999 17.333 15.9999C18.4375 15.9999 19.333 16.8953 19.333 17.9998C19.333 19.1044 18.4375 19.9998 17.333 19.9998ZM17.333 18.6665C17.7012 18.6665 17.9997 18.368 17.9997 17.9998C17.9997 17.6317 17.7012 17.3332 17.333 17.3332C16.9648 17.3332 16.6664 17.6317 16.6664 17.9998C16.6664 18.368 16.9648 18.6665 17.333 18.6665Z" fill="#1991FF"/>
</svg>
