<svg width="24" height="24" viewBox="0 0 24 24" fill="none" xmlns="http://www.w3.org/2000/svg">
<path fill-rule="evenodd" clip-rule="evenodd" d="M5.60018 6.39995C5.60018 5.95813 5.95836 5.59995 6.40018 5.59995H8.7998V18.4H6.40018C5.95836 18.4 5.60018 18.0418 5.60018 17.6V6.39995ZM10.3998 18.4V5.59995H17.6002C18.042 5.59995 18.4002 5.95813 18.4002 6.39995V17.6C18.4002 18.0418 18.042 18.4 17.6002 18.4H10.3998ZM9.5998 4H6.4C5.07452 4 4 5.07452 4 6.4V17.6C4 18.9255 5.07452 20 6.4 20H9.5998H17.6C18.9255 20 20 18.9255 20 17.6V6.4C20 5.07452 18.9255 4 17.6 4H9.5998Z" fill="#1991FF"/>
</svg>
