<svg width="24" height="24" viewBox="0 0 24 24" fill="none" xmlns="http://www.w3.org/2000/svg">
<path fill-rule="evenodd" clip-rule="evenodd" d="M4 12C4 16.4183 7.58172 20 12 20C16.4183 20 20 16.4183 20 12C20 7.58172 16.4183 4 12 4C7.58172 4 4 7.58172 4 12ZM16.0857 17.1142C14.966 18.0099 13.5456 18.5455 12.0002 18.5455C8.38523 18.5455 5.45473 15.615 5.45473 12.0001C5.45473 10.4546 5.99032 9.03429 6.88602 7.91454L16.0857 17.1142ZM17.1142 16.0857C18.01 14.9659 18.5456 13.5456 18.5456 12.0001C18.5456 8.3851 15.6151 5.4546 12.0002 5.4546C10.4547 5.4546 9.03429 5.99024 7.91452 6.886L17.1142 16.0857Z" fill="#1991FF"/>
</svg>
