<svg width="24" height="24" viewBox="0 0 24 24" fill="none" xmlns="http://www.w3.org/2000/svg">
<path fill-rule="evenodd" clip-rule="evenodd" d="M7.33333 10.3333C7.33333 10.7015 7.03486 11 6.66667 11C6.29848 11 6 10.7015 6 10.3333V5.66667C6 5.29848 6.29848 5 6.66667 5C7.03486 5 7.33333 5.29848 7.33333 5.66667V10.3333ZM7.33333 17.6666C7.33333 18.0348 7.03486 18.3333 6.66667 18.3333C6.29848 18.3333 6 18.0348 6 17.6666V13.6666H4.66667C4.29848 13.6666 4 13.3682 4 13C4 12.6318 4.29848 12.3333 4.66667 12.3333H6.66667H8.66667C9.03486 12.3333 9.33333 12.6318 9.33333 13C9.33333 13.3682 9.03486 13.6666 8.66667 13.6666H7.33333V17.6666ZM11.9997 18.3333C12.3679 18.3333 12.6663 18.0349 12.6663 17.6667V11.6667C12.6663 11.2985 12.3679 11 11.9997 11C11.6315 11 11.333 11.2985 11.333 11.6667V17.6667C11.333 18.0349 11.6315 18.3333 11.9997 18.3333ZM13.9997 8.33331H12.6663V5.66667C12.6663 5.29848 12.3679 5 11.9997 5C11.6315 5 11.333 5.29848 11.333 5.66667V8.33331H9.99967C9.63148 8.33331 9.33301 8.63179 9.33301 8.99998C9.33301 9.36817 9.63148 9.66665 9.99967 9.66665H11.9943L11.9997 9.66667L12.005 9.66665H13.9997C14.3679 9.66665 14.6663 9.36817 14.6663 8.99998C14.6663 8.63179 14.3679 8.33331 13.9997 8.33331ZM17.3337 18.3334C17.7018 18.3334 18.0003 18.0349 18.0003 17.6667V15H19.3337C19.7018 15 20.0003 14.7015 20.0003 14.3334C20.0003 13.9652 19.7018 13.6667 19.3337 13.6667H17.3337H15.3337C14.9655 13.6667 14.667 13.9652 14.667 14.3334C14.667 14.7015 14.9655 15 15.3337 15H16.667V17.6667C16.667 18.0349 16.9655 18.3334 17.3337 18.3334ZM18.0003 11.6667C18.0003 12.0349 17.7018 12.3333 17.3337 12.3333C16.9655 12.3333 16.667 12.0349 16.667 11.6667V5.66667C16.667 5.29848 16.9655 5 17.3337 5C17.7018 5 18.0003 5.29848 18.0003 5.66667V11.6667Z" fill="#1991FF"/>
</svg>
