<svg width="24" height="24" viewBox="0 0 24 24" fill="none" xmlns="http://www.w3.org/2000/svg">
<path fill-rule="evenodd" clip-rule="evenodd" d="M12.0002 6.72016L10.4052 9.95138C10.2994 10.1658 10.0949 10.3145 9.8583 10.3491L6.29049 10.8705L8.87156 13.3845C9.04309 13.5516 9.12138 13.7924 9.08091 14.0284L8.47193 17.579L11.6617 15.9016C11.8736 15.7901 12.1268 15.7901 12.3386 15.9016L15.5284 17.579L14.9194 14.0284C14.879 13.7924 14.9573 13.5516 15.1288 13.3845L17.7099 10.8705L14.142 10.3491C13.9055 10.3145 13.701 10.1658 13.5951 9.95138L12.0002 6.72016ZM9.2699 8.96516L11.3479 4.75533C11.6147 4.2149 12.3853 4.2149 12.6521 4.75533L14.7301 8.96516L19.3772 9.6444C19.9734 9.73155 20.2111 10.4645 19.7794 10.8849L16.4174 14.1595L17.2108 18.7856C17.3127 19.3797 16.6891 19.8328 16.1556 19.5522L12 17.3668L7.84438 19.5522C7.31088 19.8328 6.68727 19.3797 6.78916 18.7856L7.5826 14.1595L4.2206 10.8849C3.78894 10.4645 4.02658 9.73155 4.62282 9.6444L9.2699 8.96516Z" fill="#1991FF"/>
</svg>
