<svg width="24" height="24" viewBox="0 0 24 24" fill="none" xmlns="http://www.w3.org/2000/svg">
<path fill-rule="evenodd" clip-rule="evenodd" d="M11.333 4.66667C11.333 4.29848 11.6315 4 11.9997 4C12.3679 4 12.6663 4.29848 12.6663 4.66667V6C12.6663 6.36819 12.3679 6.66667 11.9997 6.66667C11.6315 6.66667 11.333 6.36819 11.333 6V4.66667ZM12 16C9.79086 16 8 14.2091 8 12C8 9.79086 9.79086 8 12 8C14.2091 8 16 9.79086 16 12C16 14.2091 14.2091 16 12 16ZM11.9998 14.6666C13.4726 14.6666 14.6665 13.4727 14.6665 12C14.6665 10.5272 13.4726 9.33329 11.9998 9.33329C10.5271 9.33329 9.33318 10.5272 9.33318 12C9.33318 13.4727 10.5271 14.6666 11.9998 14.6666ZM11.9997 17.3333C11.6315 17.3333 11.333 17.6318 11.333 18V19.3333C11.333 19.7015 11.6315 20 11.9997 20C12.3679 20 12.6663 19.7015 12.6663 19.3333V18C12.6663 17.6318 12.3679 17.3333 11.9997 17.3333ZM6.34175 7.2848C6.0814 7.02445 6.0814 6.60234 6.34175 6.34199C6.6021 6.08164 7.02421 6.08164 7.28456 6.34199L8.23122 7.28866C8.49157 7.54901 8.49157 7.97112 8.23122 8.23147C7.97087 8.49182 7.54876 8.49182 7.28841 8.23147L6.34175 7.2848ZM15.769 15.7686C15.5086 16.0289 15.5086 16.451 15.769 16.7114L16.7157 17.658C16.976 17.9184 17.3981 17.9184 17.6585 17.658C17.9188 17.3977 17.9188 16.9756 17.6585 16.7152L16.7118 15.7686C16.4515 15.5082 16.0293 15.5082 15.769 15.7686ZM4.66667 12.6666C4.29848 12.6666 4 12.3682 4 12C4 11.6318 4.29848 11.3333 4.66667 11.3333H6C6.36819 11.3333 6.66667 11.6318 6.66667 12C6.66667 12.3682 6.36819 12.6666 6 12.6666H4.66667ZM17.333 12C17.333 12.3682 17.6315 12.6666 17.9997 12.6666H19.333C19.7012 12.6666 19.9997 12.3682 19.9997 12C19.9997 11.6318 19.7012 11.3333 19.333 11.3333H17.9997C17.6315 11.3333 17.333 11.6318 17.333 12ZM7.28456 17.658C7.02421 17.9184 6.6021 17.9184 6.34175 17.658C6.0814 17.3977 6.0814 16.9756 6.34175 16.7152L7.28841 15.7686C7.54876 15.5082 7.97087 15.5082 8.23122 15.7686C8.49157 16.0289 8.49157 16.451 8.23122 16.7114L7.28456 17.658ZM15.769 8.23147C16.0293 8.49182 16.4515 8.49182 16.7118 8.23147L17.6585 7.2848C17.9188 7.02445 17.9188 6.60234 17.6585 6.34199C17.3981 6.08164 16.976 6.08164 16.7157 6.34199L15.769 7.28866C15.5086 7.54901 15.5086 7.97112 15.769 8.23147Z" fill="#1991FF"/>
</svg>
