<svg width="24" height="24" viewBox="0 0 24 24" fill="none" xmlns="http://www.w3.org/2000/svg">
<path fill-rule="evenodd" clip-rule="evenodd" d="M18.2701 11.7837L11.9998 5.51188H5.51123V12.0017L11.7819 18.2665C11.9237 18.4085 12.116 18.4882 12.3166 18.4882C12.5172 18.4882 12.7095 18.4085 12.8516 18.2663L18.2692 12.8473C18.5616 12.5524 18.5613 12.0768 18.2701 11.7837ZM19.3407 13.9137L13.9208 19.3349C13.4956 19.7607 12.9185 20 12.3168 20C11.7151 20 11.138 19.7607 10.7134 19.3355L4.22166 12.8498C4.07974 12.708 4 12.5156 4 12.315V4.75591C4 4.33843 4.33835 4 4.75573 4H12.313C12.5135 4 12.7057 4.07964 12.8474 4.2214L19.3407 10.7163C20.2198 11.6007 20.2198 13.0292 19.3407 13.9137Z" fill="#1991FF"/>
</svg>
