<svg width="24" height="24" viewBox="0 0 24 24" fill="none" xmlns="http://www.w3.org/2000/svg">
<path fill-rule="evenodd" clip-rule="evenodd" d="M12 20C7.58172 20 4 16.4183 4 12C4 7.58172 7.58172 4 12 4C16.4183 4 20 7.58172 20 12C20 16.4183 16.4183 20 12 20ZM12.0001 18.5456C15.6151 18.5456 18.5456 15.6151 18.5456 12.0001C18.5456 8.38519 15.6151 5.45469 12.0001 5.45469C8.38519 5.45469 5.45469 8.38519 5.45469 12.0001C5.45469 15.6151 8.38519 18.5456 12.0001 18.5456ZM11.9991 17.0906C9.18748 17.0906 6.9082 14.8114 6.9082 11.9997C6.9082 9.18809 9.18748 6.90881 11.9991 6.90881C14.8107 6.90881 17.09 9.18809 17.09 11.9997C17.09 14.8114 14.8107 17.0906 11.9991 17.0906ZM12.0009 15.6364C14.0093 15.6364 15.6373 14.0083 15.6373 12C15.6373 9.99173 14.0093 8.36367 12.0009 8.36367C9.99264 8.36367 8.36458 9.99173 8.36458 12C8.36458 14.0083 9.99264 15.6364 12.0009 15.6364ZM9.81885 12.0001C9.81885 13.205 10.7957 14.1819 12.0007 14.1819C13.2057 14.1819 14.1825 13.205 14.1825 12.0001C14.1825 10.7951 13.2057 9.81824 12.0007 9.81824C10.7957 9.81824 9.81885 10.7951 9.81885 12.0001ZM12.7275 11.9994C12.7275 12.4011 12.4019 12.7267 12.0002 12.7267C11.5985 12.7267 11.2729 12.4011 11.2729 11.9994C11.2729 11.5977 11.5985 11.2721 12.0002 11.2721C12.4019 11.2721 12.7275 11.5977 12.7275 11.9994Z" fill="#1991FF"/>
</svg>
