<svg xmlns="http://www.w3.org/2000/svg" width="24" height="24" viewBox="0 0 24 24"><title>task-action</title><path d="M18.93,16.65v1.1A2.24,2.24,0,0,1,16.69,20H6.25A2.25,2.25,0,0,1,4,17.75a.75.75,0,0,1,1.5,0,.74.74,0,0,0,.75.75H16.69a.75.75,0,0,0,.75-.75v-1.1C17.44,16.24,18.93,15.41,18.93,16.65ZM6.29,4H16.84a2.24,2.24,0,0,1,2.24,2.25v.08C19,8.06,19,10,19,10.75a14.91,14.91,0,0,0,.69,3.1,2.25,2.25,0,0,1-1.51,2.8,2.37,2.37,0,0,1-.65.09H7.15a2.25,2.25,0,0,1-2.1-1.42,14.26,14.26,0,0,1-1-4.57c0-1.28,0-3.32,0-4.6A2.26,2.26,0,0,1,6.29,4ZM5.5,9.25c0,.47,0,.95,0,1.43a12.75,12.75,0,0,0,.91,4.09.74.74,0,0,0,.7.47H17.57a.78.78,0,0,0,.22,0,.74.74,0,0,0,.5-.93,16.15,16.15,0,0,1-.75-3.46c0-.4,0-.92,0-1.57Z" fill="#1991ff"/></svg>