<svg width="24" height="24" viewBox="0 0 24 24" fill="none" xmlns="http://www.w3.org/2000/svg">
<path fill-rule="evenodd" clip-rule="evenodd" d="M15.1752 17.3979C14.7065 18.9433 13.2817 20 11.6667 20C10.0517 20 8.62694 18.9433 8.15815 17.3979C7.72539 15.9712 8.20142 14.4382 9.33353 13.5052V6.33317C9.33353 5.0446 10.3781 4 11.6667 4C12.9553 4 13.9999 5.0446 13.9999 6.33317V13.5052C15.132 14.4382 15.608 15.9712 15.1752 17.3979ZM12.6666 13.8394V6.33326C12.6666 5.78102 12.2189 5.33333 11.6667 5.33333C11.1144 5.33333 10.6668 5.78102 10.6668 6.33326V13.8394C10.6668 14.0621 10.5556 14.27 10.3705 14.3937C9.51596 14.9646 9.13565 16.0275 9.43397 17.0109C9.73229 17.9944 10.639 18.6669 11.6667 18.6669C12.6944 18.6669 13.6011 17.9944 13.8994 17.0109C14.1977 16.0275 13.8174 14.9646 12.9629 14.3937C12.7778 14.27 12.6666 14.0621 12.6666 13.8394Z" fill="#1991FF"/>
</svg>
