<svg xmlns="http://www.w3.org/2000/svg" width="24" height="24" viewBox="0 0 24 24"><title>thumbs-up</title><path d="M4.07,18a2.49,2.49,0,0,0,2.5,2.1h10.1a2.25,2.25,0,0,0,2.2-1.9l1-6.5a2.38,2.38,0,0,0-.5-1.8,2.14,2.14,0,0,0-1.7-.8h-3.4V6.9A2.9,2.9,0,0,0,11.37,4a1,1,0,0,0-.7.4L8,10.5H6.47a2.39,2.39,0,0,0-2.4,2.1V18Zm7.7-12.4a1.41,1.41,0,0,1,1,1.4V9.9a.68.68,0,0,0,.7.7h4.2a1.42,1.42,0,0,1,.6.2c.2.1.2.4.2.6l-1,6.5a.73.73,0,0,1-.7.6H9.27V11.4Zm-6.2,7.3a1,1,0,0,1,1-.8h1.2v6.5H6.57a1,1,0,0,1-1-.8Z" fill="#1991ff"/></svg>