<svg xmlns="http://www.w3.org/2000/svg" width="24" height="24" viewBox="0 0 24 24"><title>thumbs-down</title><path d="M19.87,6.08A2.4,2.4,0,0,0,17.44,4H7.31A2.18,2.18,0,0,0,5.14,5.85l-1,6.55a2.18,2.18,0,0,0,2.18,2.51H9.7v2.18A2.91,2.91,0,0,0,12.61,20a.73.73,0,0,0,.66-.43L16,13.45h1.47a2.38,2.38,0,0,0,2.41-2.08V6.08Zm-7.71,12.4a1.47,1.47,0,0,1-1-1.39V14.18a.73.73,0,0,0-.73-.73H6.31a.69.69,0,0,1-.57-.25.72.72,0,0,1-.17-.58l1-6.55a.72.72,0,0,1,.72-.62h7.49v7.12Zm6.26-7.26a1,1,0,0,1-1,.78H16.24V5.45h1.22a1,1,0,0,1,1,.79Z" fill="#1991ff"/></svg>