<svg width="24" height="24" viewBox="0 0 24 24" fill="none" xmlns="http://www.w3.org/2000/svg">
<path fill-rule="evenodd" clip-rule="evenodd" d="M11.7379 4.36852L10.0712 7.70186C9.84961 8.14512 10.1719 8.66667 10.6675 8.66667H14.0009C14.4964 8.66667 14.8188 8.14512 14.5971 7.70186L12.9305 4.36852C12.6848 3.87716 11.9836 3.87716 11.7379 4.36852ZM12.922 7.33329L12.3341 6.15734L11.7461 7.33329H12.922ZM8.17579 14.3975C7.67834 14.3975 7.35612 13.8724 7.58141 13.4289L9.30722 10.0315C9.42089 9.80774 9.6506 9.66678 9.90159 9.66678H14.8343C15.0886 9.66678 15.3208 9.81148 15.4328 10.0398L17.0995 13.4372C17.3168 13.8801 16.9944 14.3975 16.501 14.3975H8.17579ZM9.2621 13.0641H15.4313L14.4187 11.0001H10.3106L9.2621 13.0641ZM17.9305 15.7019L19.5971 19.0352C19.8188 19.4785 19.4964 20 19.0009 20H5.66753C5.17194 20 4.84961 19.4785 5.07124 19.0352L6.73791 15.7019C6.85084 15.476 7.08168 15.3333 7.33419 15.3333H17.3342C17.5867 15.3333 17.8175 15.476 17.9305 15.7019ZM7.74609 16.6667L6.74609 18.6667H17.922L16.922 16.6667H7.74609Z" fill="#1991FF"/>
</svg>
