<svg width="24" height="24" viewBox="0 0 24 24" fill="none" xmlns="http://www.w3.org/2000/svg">
<path fill-rule="evenodd" clip-rule="evenodd" d="M16.3566 8.36364H7.62935V17.8182C7.62935 18.2198 7.95496 18.5455 8.35662 18.5455H15.6294C16.031 18.5455 16.3566 18.2198 16.3566 17.8182V8.36364ZM6.90089 6.90909H5.44749C5.04583 6.90909 4.72021 7.2347 4.72021 7.63636C4.72021 8.03803 5.04583 8.36364 5.44749 8.36364H6.1748V17.8182C6.1748 19.0232 7.15164 20 8.35662 20H15.6294C16.8343 20 17.8112 19.0232 17.8112 17.8182V8.36364H18.5384C18.9401 8.36364 19.2657 8.03803 19.2657 7.63636C19.2657 7.2347 18.9401 6.90909 18.5384 6.90909H17.0851C17.0847 6.90909 17.0843 6.90909 17.0839 6.90909C17.0835 6.90909 17.0831 6.90909 17.0827 6.90909H15.6294V6.18182C15.6294 4.97683 14.6525 4 13.4475 4H10.5384C9.33346 4 8.35662 4.97683 8.35662 6.18182V6.90909H6.90327C6.90287 6.90909 6.90247 6.90909 6.90208 6.90909C6.90168 6.90909 6.90128 6.90909 6.90089 6.90909ZM9.81117 6.90909H14.1748V6.18182C14.1748 5.78016 13.8492 5.45455 13.4475 5.45455H10.5384C10.1368 5.45455 9.81117 5.78016 9.81117 6.18182V6.90909Z" fill="#1991FF"/>
</svg>
