<svg width="24" height="24" viewBox="0 0 24 24" fill="none" xmlns="http://www.w3.org/2000/svg">
<path fill-rule="evenodd" clip-rule="evenodd" d="M16.3566 8.36364H7.62935V17.8182C7.62935 18.2198 7.95496 18.5455 8.35662 18.5455H15.6294C16.031 18.5455 16.3566 18.2198 16.3566 17.8182V8.36364ZM6.90089 6.90909H5.44749C5.04583 6.90909 4.72021 7.2347 4.72021 7.63636C4.72021 8.03803 5.04583 8.36364 5.44749 8.36364H6.1748V17.8182C6.1748 19.0232 7.15164 20 8.35662 20H15.6294C16.8343 20 17.8112 19.0232 17.8112 17.8182V8.36364H18.5384C18.9401 8.36364 19.2657 8.03803 19.2657 7.63636C19.2657 7.2347 18.9401 6.90909 18.5384 6.90909H17.0851L17.0839 6.90909L17.0827 6.90909H15.6294V6.18182C15.6294 4.97683 14.6525 4 13.4475 4H10.5384C9.33346 4 8.35662 4.97683 8.35662 6.18182V6.90909H6.90327L6.90208 6.90909L6.90089 6.90909ZM9.81117 6.90909H14.1748V6.18182C14.1748 5.78016 13.8492 5.45455 13.4475 5.45455H10.5384C10.1368 5.45455 9.81117 5.78016 9.81117 6.18182V6.90909ZM9.81104 11.2727C9.81104 10.8711 10.1366 10.5455 10.5383 10.5455C10.94 10.5455 11.2656 10.8711 11.2656 11.2727V15.6364C11.2656 16.038 10.94 16.3636 10.5383 16.3636C10.1366 16.3636 9.81104 16.038 9.81104 15.6364V11.2727ZM13.4475 10.5455C13.0458 10.5455 12.7202 10.8711 12.7202 11.2727V15.6364C12.7202 16.038 13.0458 16.3636 13.4475 16.3636C13.8491 16.3636 14.1748 16.038 14.1748 15.6364V11.2727C14.1748 10.8711 13.8491 10.5455 13.4475 10.5455Z" fill="#1991FF"/>
</svg>
