<svg width="24" height="24" viewBox="0 0 24 24" fill="none" xmlns="http://www.w3.org/2000/svg">
<path fill-rule="evenodd" clip-rule="evenodd" d="M15.9005 3.96301C15.6165 3.679 15.156 3.679 14.872 3.96301L11.7499 7.08512L8.62776 3.96301C8.34375 3.679 7.88326 3.679 7.59924 3.96301C7.31523 4.24703 7.31523 4.70751 7.59924 4.99153L9.99412 7.38641H5.93182C4.72683 7.38641 3.75 8.36325 3.75 9.56823V17.5682C3.75 18.7732 4.72683 19.75 5.93182 19.75H17.5682C18.7732 19.75 19.75 18.7732 19.75 17.5682V9.56823C19.75 8.36325 18.7732 7.38641 17.5682 7.38641H13.5056L15.9005 4.99153C16.1845 4.70751 16.1845 4.24703 15.9005 3.96301ZM5.20471 9.56832C5.20471 9.16666 5.53032 8.84105 5.93198 8.84105H17.5683C17.97 8.84105 18.2956 9.16666 18.2956 9.56832V17.5683C18.2956 17.97 17.97 18.2956 17.5683 18.2956H5.93198C5.53032 18.2956 5.20471 17.97 5.20471 17.5683V9.56832Z" fill="#1991FF"/>
</svg>
