<svg xmlns="http://www.w3.org/2000/svg" width="24" height="24" viewBox="0 0 24 24"><title>undo-revert</title><path d="M16.2,5.6A7.28,7.28,0,0,0,7.5,6.8l-2.1,2V6.2A.7.7,0,0,0,4,6.2v4.7a.1.1,0,0,0,.1.1.1.1,0,0,0,.1.1h0l.1.1a.1.1,0,0,1,.1.1H9.1a.7.7,0,0,0,0-1.4H6.6c.6-.6,1.2-1.2,2-1.9a5.92,5.92,0,0,1,6.9-1,6,6,0,0,1,2.9,6.4,5.84,5.84,0,0,1-5.3,4.5A5.74,5.74,0,0,1,7.3,14a.61.61,0,0,0-.9-.4.61.61,0,0,0-.4.9,7.16,7.16,0,0,0,7.3,4.8A7.36,7.36,0,0,0,20,13.7,7.73,7.73,0,0,0,16.2,5.6Z" fill="#1a1a1a"/></svg>