<svg width="24" height="24" viewBox="0 0 24 24" fill="none" xmlns="http://www.w3.org/2000/svg">
<path fill-rule="evenodd" clip-rule="evenodd" d="M7.63818 10.5478L7.63819 8.36721C7.63593 6.12592 9.33238 4.24758 11.5623 4.02234C13.7923 3.79709 15.8301 5.29823 16.2761 7.49469C16.356 7.88822 16.1017 8.27203 15.7082 8.35193C15.3147 8.43184 14.9309 8.1776 14.851 7.78407C14.5536 6.31976 13.1951 5.319 11.7085 5.46916C10.2218 5.61933 9.09087 6.87155 9.09238 8.36648L9.09237 10.5478H17.0906C18.2953 10.5478 19.2719 11.5244 19.2719 12.7291V17.8187C19.2719 19.0234 18.2953 20 17.0906 20H6.91127C5.70658 20 4.72998 19.0234 4.72998 17.8187V12.7291C4.72998 11.5244 5.70658 10.5478 6.91127 10.5478H7.63818ZM6.18417 12.7291C6.18417 12.3275 6.5097 12.002 6.91127 12.002H17.0906C17.4922 12.002 17.8177 12.3275 17.8177 12.7291V17.8188C17.8177 18.2203 17.4922 18.5459 17.0906 18.5459H6.91127C6.5097 18.5459 6.18417 18.2203 6.18417 17.8188V12.7291Z" fill="#1991FF"/>
</svg>
