<svg width="24" height="24" viewBox="0 0 24 24" fill="none" xmlns="http://www.w3.org/2000/svg">
<path fill-rule="evenodd" clip-rule="evenodd" d="M11.9929 20C12.3946 20 12.7202 19.6744 12.7202 19.2727L12.7202 10.8466L14.3879 12.5143C14.6719 12.7983 15.1324 12.7983 15.4164 12.5143C15.7004 12.2302 15.7004 11.7697 15.4164 11.4857L12.5073 8.57664C12.4253 8.49466 12.3286 8.43635 12.2257 8.40169C12.1649 8.38115 12.1005 8.36844 12.0336 8.36475C12.0118 8.36354 11.99 8.36331 11.9682 8.36405C11.8125 8.36926 11.6692 8.42341 11.5532 8.51161C11.5245 8.53344 11.4974 8.55736 11.4723 8.58314L8.56968 11.4857C8.28566 11.7697 8.28566 12.2302 8.56968 12.5143C8.8537 12.7983 9.31418 12.7983 9.5982 12.5143L11.2657 10.8468L11.2657 19.2727C11.2657 19.6744 11.5913 20 11.9929 20ZM19.2656 8.36364C19.2656 8.7653 18.94 9.09091 18.5384 9.09091C18.1367 9.09091 17.8111 8.7653 17.8111 8.36364L17.8111 6.18182C17.8111 5.78016 17.4855 5.45455 17.0838 5.45455L6.90199 5.45455C6.50033 5.45455 6.17472 5.78016 6.17472 6.18182L6.17472 8.36364C6.17472 8.7653 5.84911 9.09091 5.44744 9.09091C5.04578 9.09091 4.72017 8.7653 4.72017 8.36364L4.72017 6.18182C4.72017 4.97683 5.697 4 6.90199 4L17.0838 4C18.2888 4 19.2656 4.97684 19.2656 6.18182L19.2656 8.36364Z" fill="#1991FF"/>
</svg>
