<svg width="24" height="24" viewBox="0 0 24 24" fill="none" xmlns="http://www.w3.org/2000/svg">
<path fill-rule="evenodd" clip-rule="evenodd" d="M4.19526 4.19526C3.93491 4.45561 3.93491 4.87772 4.19526 5.13807L5.74054 6.68335C4.75855 6.81056 4 7.65003 4 8.66668V15.3333C4 16.4379 4.89543 17.3333 6 17.3333H13.3333C14.1598 17.3333 14.8692 16.832 15.174 16.1168L18.8619 19.8047C19.1223 20.0651 19.5444 20.0651 19.8047 19.8047C20.0651 19.5444 20.0651 19.1223 19.8047 18.8619L5.13807 4.19526C4.87772 3.93491 4.45561 3.93491 4.19526 4.19526ZM14 14.9428L7.0572 8.00001H6C5.63181 8.00001 5.33333 8.29849 5.33333 8.66668V15.3333C5.33333 15.7015 5.63181 16 6 16H13.3333C13.7015 16 14 15.7015 14 15.3333V14.9428ZM14.862 12.0314C15.0935 12.2629 15.4589 12.292 15.7242 12.1002L18.6668 9.97167V15.3333C18.6668 15.7015 18.9652 16 19.3334 16C19.7016 16 20.0001 15.7015 20.0001 15.3333V8.66666C20.0001 8.12259 19.3835 7.80762 18.9427 8.12649L15.4031 10.6868L15.3334 10.6172V8.66666C15.3334 7.56209 14.438 6.66666 13.3334 6.66666H11.1068C10.7386 6.66666 10.4401 6.96513 10.4401 7.33332C10.4401 7.70151 10.7386 7.99999 11.1068 7.99999H13.3334C13.7016 7.99999 14.0001 8.29847 14.0001 8.66666V10.8933C14.0001 11.0701 14.0703 11.2397 14.1954 11.3647L14.862 12.0314Z" fill="#1991FF"/>
</svg>
