<svg width="24" height="24" viewBox="0 0 24 24" fill="none" xmlns="http://www.w3.org/2000/svg">
<path fill-rule="evenodd" clip-rule="evenodd" d="M5.10663 4.16576C5.13175 4.20883 5.16131 4.24804 5.19531 4.28204L19.678 18.8047C19.7279 18.8547 19.7905 18.895 19.861 18.9258C20.0635 19.1873 20.0447 19.5647 19.8047 19.8047C19.5444 20.0651 19.1223 20.0651 18.8619 19.8047L15.2807 16.2235C14.556 16.6992 13.7297 17.0255 12.8571 17.1573V20H11.1429V17.1573C8.33143 16.7327 6 14.2887 6 11.3333H7.45714C7.45714 13.9333 9.63429 15.7533 12 15.7533C12.7919 15.7533 13.5627 15.5494 14.2377 15.1805L12.9086 13.8514C12.6255 13.9476 12.3197 14 12 14C10.5244 14 9.33333 12.8833 9.33333 11.5V10.2761L4.19526 5.13807C3.93491 4.87772 3.93491 4.45561 4.19526 4.19526C4.44537 3.94515 4.84478 3.93532 5.10663 4.16576ZM9.33572 6.39291L14.649 11.7061C14.6548 11.6382 14.6578 11.5694 14.6578 11.5L14.6667 6.5C14.6667 5.11667 13.4756 4 12 4C10.5627 4 9.39531 5.05949 9.33572 6.39291ZM16.1335 13.1907L17.187 14.2442C17.7006 13.3858 18 12.3924 18 11.3333H16.5429C16.5429 12.0117 16.3946 12.637 16.1335 13.1907Z" fill="#1991FF"/>
</svg>
