<svg width="24" height="24" viewBox="0 0 24 24" fill="none" xmlns="http://www.w3.org/2000/svg">
<path fill-rule="evenodd" clip-rule="evenodd" d="M14.6579 11.5C14.6579 12.8833 13.4757 14 12.0002 14C10.5246 14 9.3335 12.8833 9.3335 11.5V6.5C9.3335 5.11667 10.5246 4 12.0002 4C13.4757 4 14.6668 5.11667 14.6668 6.5L14.6579 11.5ZM16.5429 11.3333H18C18 14.2887 15.6686 16.7327 12.8571 17.1573V20H11.1429V17.1573C8.33143 16.7327 6 14.2887 6 11.3333H7.45714C7.45714 13.9333 9.63429 15.7533 12 15.7533C14.3657 15.7533 16.5429 13.9333 16.5429 11.3333Z" fill="#1991FF"/>
</svg>
