<svg width="24" height="24" viewBox="0 0 24 24" fill="none" xmlns="http://www.w3.org/2000/svg">
<path fill-rule="evenodd" clip-rule="evenodd" d="M7.66667 15.3333C5.64162 15.3333 4 13.6917 4 11.6667C4 9.64162 5.64162 8 7.66667 8C9.69171 8 11.3333 9.64162 11.3333 11.6667C11.3333 12.5531 11.0188 13.366 10.4952 14H13.5046C12.981 13.366 12.6665 12.5531 12.6665 11.6667C12.6665 9.64162 14.3081 8 16.3332 8C18.3582 8 19.9998 9.64162 19.9998 11.6667C19.9998 13.6909 18.3595 15.3321 16.3355 15.3333C16.3348 15.3333 16.3341 15.3333 16.3333 15.3333H16.3332H7.66667ZM16.3333 14C17.622 14 18.6667 12.9553 18.6667 11.6667C18.6667 10.378 17.622 9.33333 16.3333 9.33333C15.0447 9.33333 14 10.378 14 11.6667C14 12.9553 15.0447 14 16.3333 14ZM10 11.6667C10 12.9553 8.95533 14 7.66667 14C6.378 14 5.33333 12.9553 5.33333 11.6667C5.33333 10.378 6.378 9.33333 7.66667 9.33333C8.95533 9.33333 10 10.378 10 11.6667Z" fill="#1991FF"/>
</svg>
