<svg width="24" height="24" viewBox="0 0 24 24" fill="none" xmlns="http://www.w3.org/2000/svg">
<path fill-rule="evenodd" clip-rule="evenodd" d="M15.9726 6.2019C15.7033 6.47116 15.7032 6.90779 15.9725 7.17713C18.3953 9.6007 18.3953 13.5293 15.9725 15.9529C15.7032 16.2222 15.7033 16.6588 15.9726 16.9281C16.242 17.1974 16.6786 17.1973 16.9478 16.928C19.9091 13.9658 19.9091 9.16419 16.9478 6.20205C16.6786 5.93271 16.242 5.93264 15.9726 6.2019ZM13.5385 8.63621C13.2691 8.90547 13.2691 9.34209 13.5383 9.61144C14.6151 10.6886 14.6151 12.4346 13.5383 13.5118C13.2691 13.7811 13.2691 14.2177 13.5385 14.487C13.8078 14.7563 14.2444 14.7562 14.5137 14.4868C16.1289 12.8711 16.1289 10.2521 14.5137 8.63635C14.2444 8.36701 13.8078 8.36695 13.5385 8.63621ZM10.4651 6.19937L7.20606 8.80663H4.68959C4.30874 8.80663 4 9.11537 4 9.49622V13.6338C4 14.0146 4.30874 14.3234 4.68959 14.3234H7.20606L10.4651 16.9306C10.9166 17.2918 11.5855 16.9704 11.5855 16.3921V6.73785C11.5855 6.15963 10.9166 5.83816 10.4651 6.19937ZM7.87865 10.0347L10.2062 8.1726V14.9573L7.87865 13.0952C7.75638 12.9974 7.60445 12.9441 7.44787 12.9441H5.37909V10.1858H7.44787C7.60445 10.1858 7.75638 10.1325 7.87865 10.0347Z" fill="#1991FF"/>
</svg>
