<svg width="24" height="24" viewBox="0 0 24 24" fill="none" xmlns="http://www.w3.org/2000/svg">
<path fill-rule="evenodd" clip-rule="evenodd" d="M7.23424 8.78391L10.522 6.15375C10.9774 5.78935 11.6522 6.11365 11.6522 6.69696V16.4361C11.6522 17.0194 10.9774 17.3437 10.522 16.9793L7.23424 14.3491H4.69565C4.31145 14.3491 4 14.0377 4 13.6535V9.47957C4 9.09537 4.31145 8.78391 4.69565 8.78391H7.23424ZM10.2609 8.14436L7.91283 10.0228C7.78948 10.1215 7.63622 10.1752 7.47826 10.1752H5.3913V12.9578H7.47826C7.63622 12.9578 7.78948 13.0116 7.91283 13.1103L10.2609 14.9887V8.14436ZM18.8122 8.98766C19.0839 8.71599 19.5244 8.71599 19.796 8.98766C20.0677 9.25933 20.0677 9.69979 19.796 9.97146L18.201 11.5665L19.796 13.1616C20.0677 13.4332 20.0677 13.8737 19.796 14.1454C19.5244 14.417 19.0839 14.417 18.8122 14.1454L17.2172 12.5503L15.6221 14.1454C15.3505 14.417 14.91 14.417 14.6383 14.1454C14.3667 13.8737 14.3667 13.4332 14.6383 13.1616L16.2334 11.5665L14.6383 9.97146C14.3667 9.69979 14.3667 9.25933 14.6383 8.98766C14.91 8.71599 15.3505 8.71599 15.6221 8.98766L17.2172 10.5827L18.8122 8.98766Z" fill="#1991FF"/>
</svg>
