<svg width="24" height="24" viewBox="0 0 24 24" fill="none" xmlns="http://www.w3.org/2000/svg">
<path d="M19.7633 17.8118C19.6148 17.6809 19.4164 17.6201 19.2198 17.6447C18.4867 17.7372 17.3291 17.8434 16.1714 17.7914C15.3792 17.7548 14.6599 17.5986 13.9796 17.3833L11.5471 10.4198C13.8652 9.673 15.808 9.37224 16.8957 9.25335C17.1226 9.22837 17.321 9.094 17.4286 8.89349C17.5362 8.69299 17.5377 8.45238 17.4325 8.25047C15.9505 5.3966 12.6844 3.89422 9.53396 4.65895L9.47556 4.49187C9.41506 4.31915 9.28878 4.17739 9.1245 4.09824C8.95988 4.01909 8.77063 4.00819 8.59756 4.06869L8.5863 4.07256C8.22715 4.19814 8.03755 4.59106 8.16313 4.95057L8.22117 5.11695C5.28711 6.47511 3.66723 9.66878 4.26875 12.816C4.31201 13.0418 4.46468 13.2311 4.67539 13.3211C4.8868 13.4112 5.12881 13.3904 5.32123 13.2652C6.18973 12.7006 7.79905 11.7825 10.2336 10.8771L12.2788 16.7333C10.6262 16.0329 9.04536 15.2998 6.95763 15.6182C5.62339 15.8215 4.57091 16.8719 4.17307 17.3239C4.06297 17.4502 4 17.6116 4 17.7791V19.2751C4 19.6557 4.31166 19.9642 4.69227 19.9642H19.3074C19.688 19.9642 20 19.6557 20 19.2751V18.3285C19.9989 18.1308 19.9117 17.9426 19.7633 17.8118Z" fill="#1991FF"/>
</svg>
