<svg width="24" height="24" viewBox="0 0 24 24" fill="none" xmlns="http://www.w3.org/2000/svg">
<path fill-rule="evenodd" clip-rule="evenodd" d="M5.72845 14.1812H11.4484L10.8235 19.1804C10.7334 19.9008 11.6387 20.2938 12.1035 19.736L19.374 11.0113C19.7687 10.5378 19.4319 9.81882 18.8155 9.81882H13.0956L13.7205 4.81959C13.8105 4.0992 12.9053 3.70623 12.4405 4.26396L5.16991 12.9887C4.77528 13.4622 5.11202 14.1812 5.72845 14.1812ZM7.28076 12.727L11.97 7.09991L11.5505 10.4557C11.4963 10.8896 11.8347 11.2729 12.272 11.2729H17.2632L12.574 16.9L12.9934 13.5443C13.0477 13.1103 12.7093 12.727 12.272 12.727H7.28076Z" fill="#1991FF"/>
</svg>
